<?xml version="1.0" encoding="utf-8"?>
<!-- Generator: Adobe Illustrator 25.4.1, SVG Export Plug-In . SVG Version: 6.00 Build 0)  -->
<svg version="1.1" id="Layer_1" xmlns="http://www.w3.org/2000/svg" xmlns:xlink="http://www.w3.org/1999/xlink" x="0px" y="0px"
	 viewBox="0 0 4000 3000" style="enable-background:new 0 0 4000 3000;" xml:space="preserve">
<style type="text/css">
	.st0{fill:none;}
	.st1{fill:#231F20;}
	.st2{fill:none;stroke:#231F20;stroke-width:1.6;stroke-linecap:round;}
	.st3{fill:none;stroke:#231F20;stroke-width:4;}
	.st4{fill:none;stroke:#231F20;stroke-width:3.642;}
	.st5{fill:none;stroke:#231F20;stroke-width:3.285;}
	.st6{fill:none;stroke:#231F20;stroke-width:2.928;}
	.st7{fill:none;stroke:#231F20;stroke-width:2.571;}
	.st8{fill:none;stroke:#231F20;stroke-width:2.214;}
	.st9{fill:none;stroke:#231F20;stroke-width:1.857;}
	.st10{fill:none;stroke:#231F20;stroke-width:1.5;}
	.st11{fill:#F5F5F0;}
	.st12{opacity:1.500000e-02;filter:url(#noiseFilter);enable-background:new    ;}
	.st13{opacity:0.12;}
	.st14{fill:none;stroke:#111111;}
	.st15{opacity:0.5;}
	.st16{fill:none;stroke:#444444;stroke-width:2;}
	.st17{fill:none;stroke:#111111;stroke-width:5;}
	.st18{opacity:0.5;fill:none;stroke:#111111;stroke-width:2;enable-background:new    ;}
	.st19{fill:none;stroke:#111111;stroke-width:6;}
	.st20{opacity:0.4;fill:none;stroke:#111111;stroke-width:2;enable-background:new    ;}
	.st21{fill:#111111;}
	.st22{font-family:'CourierNewPSMT';}
	.st23{font-size:34px;}
	.st24{letter-spacing:2;}
	.st25{font-size:30px;}
	.st26{letter-spacing:3;}
	.st27{fill:none;stroke:url(#SVGID_1_);stroke-miterlimit:10;}
	.st28{fill:none;stroke:url(#SVGID_00000057111099823167808890000011853230372928427397_);stroke-miterlimit:10;}
	.st29{fill:none;stroke:url(#SVGID_00000158707710652064435860000016255580255067946129_);stroke-miterlimit:10;}
	.st30{fill:none;stroke:url(#SVGID_00000106148755775941117600000015469226191705323943_);stroke-miterlimit:10;}
	.st31{fill:none;stroke:url(#SVGID_00000014606774262327319180000014953738336547102352_);stroke-miterlimit:10;}
	.st32{fill:none;stroke:url(#SVGID_00000135684354624961000470000009229544864546565025_);stroke-miterlimit:10;}
	.st33{fill:none;stroke:url(#SVGID_00000098223105538659461300000007000861598885939081_);stroke-miterlimit:10;}
	.st34{fill:none;stroke:url(#SVGID_00000090278208925574935600000011629734055768484255_);stroke-miterlimit:10;}
	.st35{fill:none;stroke:url(#SVGID_00000085211829145992716490000013523913776584875705_);stroke-miterlimit:10;}
	
		.st36{fill:url(#SVGID_00000027594608446374433240000012701931439032275114_);stroke:url(#SVGID_00000045578843305823931370000012225884198791716262_);stroke-width:1.5;stroke-miterlimit:10;}
	
		.st37{fill:url(#SVGID_00000063608894649926464460000015181384976959695537_);stroke:url(#SVGID_00000181077734100649257360000010147705143377481620_);stroke-width:1.5;stroke-miterlimit:10;}
	
		.st38{fill:url(#SVGID_00000025412516432237590500000009802138011948051642_);stroke:url(#SVGID_00000009568328819150656990000003728371929943951022_);stroke-width:1.5;stroke-miterlimit:10;}
	.st39{fill:none;stroke:url(#SVGID_00000093884726589915284960000000871898678671564685_);stroke-width:2;stroke-miterlimit:10;}
	.st40{fill:none;stroke:url(#SVGID_00000050629560365074570810000002568007288906057656_);stroke-width:2;stroke-miterlimit:10;}
	.st41{fill:none;stroke:url(#SVGID_00000047026548768518860210000014317408163706523298_);stroke-width:2;stroke-miterlimit:10;}
	.st42{fill:none;stroke:url(#SVGID_00000025444397955284756210000005267473049503254183_);stroke-width:0.7;stroke-miterlimit:10;}
	.st43{fill:none;stroke:url(#SVGID_00000168827103774548256340000000840229090472768145_);stroke-width:0.7;stroke-miterlimit:10;}
	.st44{fill:none;stroke:url(#SVGID_00000100343030316451465070000000071633020076155063_);stroke-width:0.7;stroke-miterlimit:10;}
	.st45{fill:none;stroke:url(#SVGID_00000005263233706315675100000000439915819354731421_);stroke-width:0.7;stroke-miterlimit:10;}
	.st46{fill:none;stroke:url(#SVGID_00000070096161001748090630000015872781883033887384_);stroke-width:0.7;stroke-miterlimit:10;}
	.st47{fill:none;stroke:url(#SVGID_00000103256023720554375880000017935339157033825687_);stroke-width:0.7;stroke-miterlimit:10;}
	.st48{fill:none;stroke:url(#SVGID_00000120528443986303890780000003417085811207766963_);stroke-width:0.7;stroke-miterlimit:10;}
	.st49{display:none;}
	.st50{display:inline;fill:url(#SVGID_00000130626709279060625060000003712541354799816353_);}
	.st51{display:inline;fill:url(#SVGID_00000165236887097271798560000018369742943339127737_);}
	.st52{display:inline;fill:url(#SVGID_00000162339622301905508960000014630696942798017454_);}
	.st53{display:inline;fill:url(#SVGID_00000168837627440540229490000009871706973525517190_);}
	.st54{display:inline;fill:url(#SVGID_00000064325458755411854940000005464449370844903576_);}
	.st55{display:inline;fill:url(#SVGID_00000013915441401868725470000013725398140240578993_);}
	.st56{display:inline;fill:url(#SVGID_00000106124199944848295170000006024893487731873707_);}
	.st57{display:inline;fill:url(#SVGID_00000019656737520516327590000017910071759890615997_);}
	.st58{display:inline;fill:url(#SVGID_00000073723733029113188030000013211834985864151697_);}
	.st59{display:inline;fill:url(#SVGID_00000114755269511371171820000009414877564222151570_);}
	.st60{display:inline;fill:url(#SVGID_00000009562328425516111150000007552490064468865977_);}
	.st61{display:inline;fill:url(#SVGID_00000075155604007201514300000015211657693020535434_);}
	.st62{display:inline;fill:url(#SVGID_00000081638474332457804960000002287293600369733780_);}
	.st63{display:inline;fill:url(#SVGID_00000007392802545226095330000015108260329429579185_);}
	.st64{display:inline;fill:url(#SVGID_00000083770661929795040450000003950105426252220340_);}
	.st65{display:inline;fill:url(#SVGID_00000082354817254217545380000007057692537720142779_);}
	.st66{display:inline;fill:url(#SVGID_00000039837212866116010000000009528237497621791400_);}
	.st67{display:inline;fill:url(#SVGID_00000068679248421030562820000013899620075399907763_);}
	.st68{display:inline;fill:url(#SVGID_00000142143353339688707400000014562084152955123639_);}
	.st69{display:inline;fill:url(#SVGID_00000034810425723849617550000003355504343649326484_);}
	.st70{display:inline;fill:url(#SVGID_00000112599750670267292170000009846757683930486959_);}
	.st71{display:inline;fill:url(#SVGID_00000137845568279625847990000006584805810468677009_);}
	.st72{display:inline;fill:url(#SVGID_00000136385318325227605370000016936005707832364183_);}
	.st73{display:inline;fill:url(#SVGID_00000158019055463476158300000015105886668740443324_);}
	.st74{display:inline;fill:url(#SVGID_00000059993212445648241380000006871624547222225573_);}
	.st75{display:inline;fill:url(#SVGID_00000097496647794079618480000001791451701367069600_);}
	.st76{display:inline;fill:url(#SVGID_00000151521258573338487770000001457273930153590715_);}
	.st77{display:inline;fill:url(#SVGID_00000154422560453128481060000004555615645169576863_);}
	.st78{display:inline;fill:url(#SVGID_00000113335909179751653470000002740545008135851708_);}
	.st79{display:inline;fill:url(#SVGID_00000093893058386580582770000014506913854502533516_);}
	.st80{display:inline;fill:url(#SVGID_00000044887920335010205460000000534017830247542177_);}
	.st81{display:inline;fill:url(#SVGID_00000146478475597465888130000013997271461691523250_);}
	.st82{display:inline;fill:url(#SVGID_00000098915268464408548960000003249533203403397800_);}
	.st83{display:inline;fill:url(#SVGID_00000088827399018295882470000012604110980617195412_);}
	.st84{display:inline;fill:url(#SVGID_00000029734569498944384760000010443555332560522908_);}
	.st85{display:inline;fill:url(#SVGID_00000111885053885414081890000011036091855528730013_);}
	.st86{display:inline;fill:url(#SVGID_00000054227510256604804220000001995470226456450204_);}
	.st87{display:inline;fill:url(#SVGID_00000127740648677040587230000001668133509200641204_);}
	.st88{display:inline;fill:url(#SVGID_00000134952972562049943780000010009940256180020396_);}
	.st89{display:inline;fill:url(#SVGID_00000013186375001096842940000004361824414475269261_);}
	.st90{display:inline;fill:url(#SVGID_00000109709557705327751920000001054836765336721292_);}
	.st91{display:inline;fill:url(#SVGID_00000161631486823700511750000007437580647273122237_);}
	.st92{display:inline;fill:url(#SVGID_00000178193839331357422330000017127621592608944040_);}
	.st93{display:inline;fill:url(#SVGID_00000001628838777135988720000004108118995647952812_);}
	.st94{display:inline;fill:url(#SVGID_00000003798140816165546600000008423441228108641693_);}
	.st95{display:inline;fill:url(#SVGID_00000000215972221549517080000008496725645110490274_);}
	.st96{display:inline;fill:url(#SVGID_00000033347468831697415870000008393034538093560506_);}
	.st97{display:inline;fill:url(#SVGID_00000012474191137584854310000016685595523671872669_);}
	.st98{display:inline;fill:url(#SVGID_00000071546765306332768610000002661210096898147474_);}
</style>
<filter  id="noiseFilter">
	<feTurbulence  baseFrequency="0.9" numOctaves="2" stitchTiles="stitch" type="fractalNoise"></feTurbulence>
</filter>
<pattern  y="3000" width="28.8" height="28.8" patternUnits="userSpaceOnUse" id="_x31_0_dpi_70_x25_" viewBox="5 -33.8 28.8 28.8" style="overflow:visible;">
	<g>
		<rect x="5" y="-33.8" class="st0" width="28.8" height="28.8"/>
		<g>
			<path class="st1" d="M33.8,0c2.8,0,5-2.3,5-5c0-2.8-2.3-5-5-5c-2.8,0-5,2.3-5,5C28.8-2.3,31.1,0,33.8,0z"/>
			<path class="st1" d="M19.4,0c2.8,0,5-2.3,5-5c0-2.8-2.3-5-5-5s-5,2.3-5,5C14.4-2.3,16.7,0,19.4,0z"/>
			<path class="st1" d="M33.8-14.4c2.8,0,5-2.3,5-5c0-2.8-2.3-5-5-5c-2.8,0-5,2.3-5,5C28.8-16.7,31.1-14.4,33.8-14.4z"/>
			<path class="st1" d="M19.4-14.4c2.8,0,5-2.3,5-5c0-2.8-2.3-5-5-5s-5,2.3-5,5C14.4-16.7,16.7-14.4,19.4-14.4z"/>
			<path class="st1" d="M12.2-7.2c2.8,0,5-2.3,5-5c0-2.8-2.3-5-5-5c-2.8,0-5,2.3-5,5C7.2-9.5,9.5-7.2,12.2-7.2z"/>
			<path class="st1" d="M26.6-7.2c2.8,0,5-2.3,5-5c0-2.8-2.3-5-5-5c-2.8,0-5,2.3-5,5C21.6-9.5,23.9-7.2,26.6-7.2z"/>
			<path class="st1" d="M12.2-21.6c2.8,0,5-2.3,5-5c0-2.8-2.3-5-5-5c-2.8,0-5,2.3-5,5C7.2-23.9,9.5-21.6,12.2-21.6z"/>
			<path class="st1" d="M26.6-21.6c2.8,0,5-2.3,5-5c0-2.8-2.3-5-5-5c-2.8,0-5,2.3-5,5C21.6-23.9,23.9-21.6,26.6-21.6z"/>
		</g>
		<g>
			<circle class="st1" cx="5" cy="-5" r="5"/>
			<path class="st1" d="M5-14.4c2.8,0,5-2.3,5-5c0-2.8-2.3-5-5-5c-2.8,0-5,2.3-5,5C0-16.7,2.3-14.4,5-14.4z"/>
		</g>
		<g>
			<path class="st1" d="M33.8-28.8c2.8,0,5-2.3,5-5c0-2.8-2.3-5-5-5c-2.8,0-5,2.3-5,5C28.8-31.1,31.1-28.8,33.8-28.8z"/>
			<path class="st1" d="M19.4-28.8c2.8,0,5-2.3,5-5c0-2.8-2.3-5-5-5s-5,2.3-5,5C14.4-31.1,16.7-28.8,19.4-28.8z"/>
		</g>
		<g>
			<path class="st1" d="M5-28.8c2.8,0,5-2.3,5-5c0-2.8-2.3-5-5-5c-2.8,0-5,2.3-5,5C0-31.1,2.3-28.8,5-28.8z"/>
		</g>
	</g>
</pattern>
<pattern  y="3000" width="57.6" height="57.6" patternUnits="userSpaceOnUse" id="Capsules" viewBox="4.2 -61.5 57.6 57.6" style="overflow:visible;">
	<g>
		<rect x="4.2" y="-61.5" class="st0" width="57.6" height="57.6"/>
		<g>
			<line class="st2" x1="62.3" y1="-47" x2="66.4" y2="-48"/>
		</g>
		<g>
			<line class="st2" x1="30" y1="-29.7" x2="27.8" y2="-26"/>
			<line class="st2" x1="27.4" y1="-36.6" x2="29.2" y2="-33.4"/>
			<line class="st2" x1="25.9" y1="-34.1" x2="26.2" y2="-29.3"/>
			<line class="st2" x1="35" y1="-17.4" x2="35.8" y2="-13.2"/>
			<line class="st2" x1="21.7" y1="-22.8" x2="20.9" y2="-18.6"/>
			<line class="st2" x1="14" y1="-22.3" x2="17.4" y2="-19.6"/>
			<line class="st2" x1="21.7" y1="-28.1" x2="25" y2="-25.4"/>
			<line class="st2" x1="25.9" y1="-18.1" x2="24.4" y2="-22.1"/>
			<line class="st2" x1="13.6" y1="-19.5" x2="9.4" y2="-15.9"/>
			<line class="st2" x1="19.3" y1="-30.2" x2="23.4" y2="-31.4"/>
			<line class="st2" x1="28" y1="-10.6" x2="31.4" y2="-13.1"/>
			<line class="st2" x1="19.3" y1="-8.7" x2="21.5" y2="-12.4"/>
			<line class="st2" x1="37.9" y1="-27.4" x2="39.6" y2="-23.4"/>
			<line class="st2" x1="45.9" y1="-36.6" x2="45.4" y2="-30.9"/>
			<line class="st2" x1="34.8" y1="-22.6" x2="32.6" y2="-18.9"/>
			<line class="st2" x1="43.9" y1="-22.8" x2="40.5" y2="-20.1"/>
			<line class="st2" x1="42.8" y1="-9.5" x2="46.1" y2="-6.8"/>
			<line class="st2" x1="41.1" y1="-29" x2="44.4" y2="-26.3"/>
			<line class="st2" x1="34.3" y1="-26.9" x2="35.8" y2="-30.9"/>
			<line class="st2" x1="38.5" y1="-31" x2="42.1" y2="-33.3"/>
			<line class="st2" x1="14.2" y1="-13.6" x2="16.7" y2="-17.1"/>
			<line class="st2" x1="45.2" y1="-41.1" x2="42.8" y2="-37.6"/>
			<line class="st2" x1="18.2" y1="-23.6" x2="16.5" y2="-28.9"/>
			<line class="st2" x1="17.3" y1="-44.4" x2="20.1" y2="-47.6"/>
			<line class="st2" x1="38.9" y1="-39.6" x2="38.4" y2="-34.1"/>
			<line class="st2" x1="25.7" y1="-38.1" x2="27.6" y2="-42.8"/>
			<line class="st2" x1="29.9" y1="-19.4" x2="28.5" y2="-15.4"/>
			<line class="st2" x1="35.9" y1="-19.9" x2="39.2" y2="-17.1"/>
			<line class="st2" x1="20.5" y1="-39.6" x2="23.2" y2="-34.9"/>
			<line class="st2" x1="29.3" y1="-6.4" x2="33" y2="-8.6"/>
			<line class="st2" x1="19.2" y1="-32.6" x2="15" y2="-33.7"/>
			<line class="st2" x1="18.6" y1="-41.2" x2="16.9" y2="-38.1"/>
			<line class="st2" x1="49.9" y1="-55.6" x2="50.2" y2="-50.5"/>
			<line class="st2" x1="34.6" y1="-58.1" x2="38" y2="-55.4"/>
			<line class="st2" x1="29.4" y1="-56.1" x2="25.1" y2="-53.2"/>
			<line class="st2" x1="17.9" y1="-59.2" x2="21.7" y2="-56.6"/>
			<line class="st2" x1="32" y1="-45" x2="34.2" y2="-41.3"/>
			<line class="st2" x1="34.2" y1="-52.4" x2="33.6" y2="-49"/>
			<line class="st2" x1="37.5" y1="-52.9" x2="41.4" y2="-51.1"/>
			<line class="st2" x1="29.7" y1="-51.7" x2="31.9" y2="-55.4"/>
			<line class="st2" x1="52.4" y1="-40.4" x2="48.6" y2="-37"/>
			<line class="st2" x1="21.9" y1="-41.9" x2="23.8" y2="-46.8"/>
			<line class="st2" x1="20.9" y1="-52.9" x2="23.9" y2="-49.9"/>
			<line class="st2" x1="46.4" y1="-56.8" x2="44.2" y2="-52.9"/>
			<line class="st2" x1="48.7" y1="-46.4" x2="48.8" y2="-42.1"/>
			<line class="st2" x1="44.8" y1="-49.1" x2="49.1" y2="-48.9"/>
			<line class="st2" x1="30" y1="-48.5" x2="26.7" y2="-45.8"/>
			<line class="st2" x1="49.4" y1="-30.8" x2="47.7" y2="-26.9"/>
			<line class="st2" x1="54.3" y1="-22.9" x2="55" y2="-18.7"/>
			<line class="st2" x1="54.9" y1="-27.9" x2="56.5" y2="-23.9"/>
			<line class="st2" x1="54.9" y1="-14.8" x2="51.6" y2="-12.1"/>
			<line class="st2" x1="56.8" y1="-11.3" x2="59" y2="-14.9"/>
			<line class="st2" x1="47.7" y1="-16.3" x2="48.7" y2="-11.1"/>
			<line class="st2" x1="58.8" y1="-38.2" x2="54.5" y2="-38.5"/>
			<line class="st2" x1="60.5" y1="-21.3" x2="57.3" y2="-18.6"/>
			<line class="st2" x1="51.8" y1="-25.1" x2="50" y2="-21.2"/>
			<line class="st2" x1="57.6" y1="-35.3" x2="60.8" y2="-32.4"/>
			<line class="st2" x1="11.9" y1="-56.1" x2="9.2" y2="-53.2"/>
			<line class="st2" x1="18.2" y1="-51.3" x2="14.9" y2="-48.6"/>
			<line class="st2" x1="15.4" y1="-59" x2="16.6" y2="-54.9"/>
			<line class="st2" x1="51.9" y1="-30.8" x2="56.2" y2="-30.3"/>
			<line class="st2" x1="10.9" y1="-13.7" x2="9.3" y2="-9.8"/>
			<line class="st2" x1="12.5" y1="-8.5" x2="9.2" y2="-5.8"/>
			<line class="st2" x1="10.3" y1="-31.6" x2="13.6" y2="-28.9"/>
			<line class="st2" x1="53.1" y1="-54.4" x2="56.8" y2="-56.6"/>
			<line class="st2" x1="54.4" y1="-51.9" x2="53" y2="-47.9"/>
			<line class="st2" x1="4.7" y1="-47" x2="8.8" y2="-48"/>
			<line class="st2" x1="6.7" y1="-32.6" x2="8.9" y2="-36.2"/>
			<line class="st2" x1="9.7" y1="-43.2" x2="6.5" y2="-40.4"/>
			<line class="st2" x1="11.5" y1="-46.6" x2="13.7" y2="-42.9"/>
			<line class="st2" x1="9.9" y1="-40.4" x2="12.7" y2="-35.9"/>
			<line class="st2" x1="8.2" y1="-29.1" x2="7.4" y2="-24.9"/>
			<line class="st2" x1="13.7" y1="-25.9" x2="9.7" y2="-22.8"/>
			<line class="st2" x1="15.6" y1="-11.6" x2="16" y2="-7.3"/>
			<line class="st2" x1="38.9" y1="-48.9" x2="35" y2="-45.6"/>
			<line class="st2" x1="41.6" y1="-48.2" x2="43.7" y2="-44.5"/>
			<line class="st2" x1="37.5" y1="-43.9" x2="41.3" y2="-42"/>
			<line class="st2" x1="32.6" y1="-24.7" x2="29.3" y2="-21.9"/>
			<line class="st2" x1="24.4" y1="-16.8" x2="20.4" y2="-15.2"/>
			<line class="st2" x1="24.2" y1="-11.4" x2="26.2" y2="-7.1"/>
			<line class="st2" x1="40.4" y1="-14.1" x2="44.4" y2="-12.7"/>
			<line class="st2" x1="41.2" y1="-58.4" x2="40.8" y2="-54"/>
			<line class="st2" x1="45" y1="-19.9" x2="44" y2="-15.7"/>
			<line class="st2" x1="40.4" y1="-11.8" x2="36.3" y2="-10.6"/>
			<line class="st2" x1="36.7" y1="-37.9" x2="32.8" y2="-33.8"/>
			<line class="st2" x1="54.1" y1="-10.2" x2="55.8" y2="-6.2"/>
			<line class="st2" x1="60.4" y1="-25" x2="63.7" y2="-22.3"/>
			<line class="st2" x1="61.1" y1="-15.3" x2="64.4" y2="-12.6"/>
			<line class="st2" x1="58.4" y1="-29.3" x2="62.5" y2="-30.5"/>
			<line class="st2" x1="60.6" y1="-40.1" x2="62.8" y2="-36.4"/>
			<line class="st2" x1="62.3" y1="-47" x2="66.4" y2="-48"/>
			<line class="st2" x1="63.2" y1="-9.9" x2="59.9" y2="-7.2"/>
			<line class="st2" x1="55.3" y1="-47" x2="57" y2="-43"/>
			<line class="st2" x1="64.5" y1="-18.6" x2="60.3" y2="-17.7"/>
			<line class="st2" x1="55.1" y1="-35.4" x2="49.9" y2="-34.1"/>
			<line class="st2" x1="10.3" y1="-50.3" x2="13.8" y2="-52.7"/>
			<line class="st2" x1="49.2" y1="-19.1" x2="52.2" y2="-16"/>
			<line class="st2" x1="57.3" y1="-52.8" x2="59.3" y2="-49.1"/>
			<line class="st2" x1="63.2" y1="-43.6" x2="59" y2="-43.9"/>
			<line class="st2" x1="30.5" y1="-41.7" x2="31.7" y2="-36.6"/>
			<line class="st2" x1="46.3" y1="-25.1" x2="47.2" y2="-20.9"/>
			<line class="st2" x1="51.4" y1="-43.5" x2="55.1" y2="-41.5"/>
			<line class="st2" x1="39.2" y1="-7.1" x2="36.2" y2="-8.1"/>
			<line class="st2" x1="24.8" y1="-59.7" x2="24.4" y2="-55.4"/>
			<line class="st2" x1="6.2" y1="-55.9" x2="7.2" y2="-50.6"/>
			<line class="st2" x1="60.4" y1="-53.4" x2="61.9" y2="-57.4"/>
			<line class="st2" x1="51.9" y1="-8.8" x2="50.2" y2="-4.9"/>
			<line class="st2" x1="48.5" y1="-1.7" x2="44.8" y2="-3.9"/>
			<line class="st2" x1="33.7" y1="-6.3" x2="31.9" y2="-0.8"/>
			<line class="st2" x1="25.7" y1="-5" x2="28.7" y2="-0.8"/>
			<line class="st2" x1="55.1" y1="-4.1" x2="51.8" y2="-1.4"/>
			<line class="st2" x1="12.7" y1="-5.7" x2="11.8" y2="-1.5"/>
			<line class="st2" x1="19.2" y1="-5.9" x2="15.9" y2="-3.5"/>
			<line class="st2" x1="5.8" y1="-6.1" x2="6.6" y2="-1.9"/>
			<line class="st2" x1="58.2" y1="-1.1" x2="60.4" y2="-4.8"/>
			<line class="st2" x1="38.2" y1="-0.8" x2="38.2" y2="-4.1"/>
			<line class="st2" x1="21.1" y1="-7.4" x2="21.8" y2="-3.1"/>
			<line class="st2" x1="41.3" y1="-5.7" x2="43.2" y2="-2.4"/>
		</g>
		<g>
			<line class="st2" x1="2.8" y1="-25" x2="6.1" y2="-22.3"/>
			<line class="st2" x1="3.5" y1="-15.3" x2="6.8" y2="-12.6"/>
			<line class="st2" x1="0.8" y1="-29.3" x2="4.9" y2="-30.5"/>
			<line class="st2" x1="3" y1="-40.1" x2="5.2" y2="-36.4"/>
			<line class="st2" x1="4.7" y1="-47" x2="8.8" y2="-48"/>
			<line class="st2" x1="5.6" y1="-9.9" x2="2.3" y2="-7.2"/>
			<line class="st2" x1="6.9" y1="-18.6" x2="2.7" y2="-17.7"/>
			<line class="st2" x1="5.6" y1="-43.6" x2="1.4" y2="-43.9"/>
			<line class="st2" x1="2.8" y1="-53.4" x2="4.3" y2="-57.4"/>
		</g>
		<g>
			<line class="st2" x1="48.5" y1="-59.3" x2="44.8" y2="-61.5"/>
			<line class="st2" x1="33.7" y1="-63.9" x2="31.9" y2="-58.4"/>
			<line class="st2" x1="25.7" y1="-62.7" x2="28.7" y2="-58.4"/>
			<line class="st2" x1="55.1" y1="-61.7" x2="51.8" y2="-59"/>
			<line class="st2" x1="12.7" y1="-63.3" x2="11.8" y2="-59.1"/>
			<line class="st2" x1="19.2" y1="-63.5" x2="15.9" y2="-61.2"/>
			<line class="st2" x1="5.8" y1="-63.7" x2="6.6" y2="-59.5"/>
			<line class="st2" x1="58.2" y1="-58.7" x2="60.4" y2="-62.4"/>
			<line class="st2" x1="38.2" y1="-58.4" x2="38.2" y2="-61.7"/>
			<line class="st2" x1="21.1" y1="-65" x2="21.8" y2="-60.8"/>
			<line class="st2" x1="41.3" y1="-63.3" x2="43.2" y2="-60"/>
		</g>
	</g>
</pattern>
<pattern  y="3000" width="72" height="72" patternUnits="userSpaceOnUse" id="Mezzotint" viewBox="5.3 -81.2 72 72" style="overflow:visible;">
	<g>
		<rect x="5.3" y="-81.2" class="st0" width="72" height="72"/>
		<g>
			<path d="M21.7-11.4c-0.4,1.6,1.5,4.6-2.5,2.9l0.5,1.4c-0.8-0.1-1.9-0.4-2,0.3C18-6,18.1-5.1,19.2-4.5l-1.5-0.2
				C14.4-7.7,23.4-6.8,21.7-11.4z"/>
			<path d="M66.9-10.2C66.2-10.4,65-9.6,64-9l-1.7,4.7l1.9-1.1l0.6,1.8l3.8-2.2l-1.6,2c-2.6,0.8-2.4-0.6-2.8-1.5l-1.9,1.1
				C61.9-4.7,62-5.4,60.8-5c4.5-2.3,2.4-3.9,3.6-5.9L66.9-10.2z"/>
			<path d="M66.6-8.7c-0.7,0.6-0.2,1.5-0.1,2.2c1.3-1.7,5.5-2,2.9-5.3c0.9,0.2,1,1.1,1.3,1.8c-2.4,0-2,4.9-5,2.9L66.6-8.7z"/>
			<polygon points="75,-9.9 73.3,-10.1 77.8,-8.6 78.1,-9.1 75.3,-10.5 			"/>
			<path d="M51.7-4L51-4.7l1-1L52.7-5L51.7-4l2,2c-0.5,0.6-1.3,1.1-1,2h-1C51.5-1.4,54.1-2.9,51.7-4h-1l2-6C52.4-8,49-6,51.7-4z"/>
			<path d="M27.9-12.8c-1.5,1.8-1.2,3.6-3.1,5.5l-1.4,0.8l1-0.6l0.4-1.7l-1,0.6c0.1,1.3-1.2,2.8-2.2,4.2l7.3-8L27.9-12.8z"/>
			<path d="M49.9-9.8l-2,3c0.4,2.1-0.6-3.1-3-4l3,3L49.9-9.8z"/>
			<path d="M36.2-10.4c4.1-1.2,0.1,2.5,0.2,3.7c-0.9,1.3,0.9-1.4,2.1-5.9C37.9-11.8,37.5-11,36.2-10.4z"/>
		</g>
		<g>
			<polygon points="3,-9.9 1.3,-10.1 5.8,-8.6 6.1,-9.1 3.3,-10.5 			"/>
		</g>
		<g>
			<path d="M79.2-74.7l-1-0.2v-1.4l1,0.2V-74.7l2.9,0.5c0.1,0.8-0.1,1.6,0.7,2.2L82-71.4C80.9-72.5,81.7-75.2,79.2-74.7l-0.7,0.6
				l-2.9-6.1C76.8-78.4,75.8-74.8,79.2-74.7z"/>
			<path d="M75.1-18.2c2.7,0.5,4.4-0.6,6.6-0.9l-3.4,0.7l-1.4-0.9C78.3-20.2,74.9-18.8,75.1-18.2z"/>
			<polygon points="75.5,-29.4 73.6,-28.8 77.6,-32.4 			"/>
			<polygon points="74.7,-40.1 74.2,-40.4 78.5,-40.9 78.5,-41.8 80.7,-42 79.6,-42.4 			"/>
		</g>
		<g>
			<polygon points="12.3,-18.7 11.7,-20 14.4,-21.1 10.9,-18.2 			"/>
			<path d="M13.7-81c-5,3.1,0.9,6.6,1,10c1.4,0.4,2-1.3,3-2c0.3-0.9-0.5-1.4-1-2l-1,1c-0.3-1.7,0.8-4-1-5c0.9,0.3,1.4-0.5,2-1
				c-1.8,0.7-0.7,2.7-1,4c0.7,1,2.4,1.6,2,3l-2,2l1,1c-0.5,0.6-1.3,1.1-1,2c1.6,1.6,3.9,4.6,6,2l-1,1c2.5,0.5-3.1,0.4-4-1
				c-1-2.6-1.6-6.3-5-7l1,1c2.7-1.7-0.7-3.3-1-5h-1C11.7-78.3,12.7-80.5,13.7-81z"/>
			<path d="M58.7-77L58-77.7l1-1l0.7,0.7L58.7-77c-1-0.7-1.6-2.4-3-2c-0.5,0.6-1.3,1.1-1,2c2.6,2.5-1.3-0.8,0-2
				C56.6-79.6,57.5-78.1,58.7-77z"/>
			<path d="M20.7-72.2c-0.9-0.3-1.4,0.5-2,1c-0.3,0.9,0.5,1.4,1,2c2.1-0.3,3.3-2.7,5-4c-0.6-1.2-1.9-1-3-1c1.1,0,2.4,0.2,3-1l-1,1
				l1,1l-3,3l1,1c0,2.5,0.2-1-1-1c-1.1,1.3-2.6,1.5-4,2l1-1l-1-1c1.8-1.2,2.3-2.9,2-5C19.7-74.1,19.5-72.8,20.7-72.2z"/>
			<path d="M63.2-66.7c0.6,1.9-0.9,2.8-2,4l1,1c-0.5,0.6-1.3,1.1-1,2c-2-2.7-4,0.7-6,1c-1.2,1.4,2.2-1.4,1-3c-0.3,0.9,0.5,1.4,1,2
				l5-2l-1-1l2-2l-2-2H63.2z"/>
			<path d="M67-59.7c3.4,2.1,1.8,2.8,1.8,3.8l-2,2c2.7,4,4.8-7.2,7.3-3.7c2.5,1.3-0.3,0.3-1-1L66.7-52l1-1l-1-1
				c1.3-2.7,4-3.2,0.2-6.8l1-1C68.3-60.8,67.5-60.3,67-59.7z"/>
			<path d="M71.9-55.1c2.2,0.7-1.9,3.4-2.8,5.1c1.2-0.8,2-0.7,3-0.9c0.6,0.3-0.3,1.2-0.9,1.9c-1.8,1.2-3.1,0.7-4.6,1l3.5,0.3
				c0.7-0.7,1.2-1.6,2.5-2c-3.7-1.2,0.9-4.2,0.4-6.8L71.9-55.1z"/>
			<path d="M63.7-45c0.6-0.5,1.1-1.3,2-1l1,1l1-1v2c-1.2-2.1-3.3-2.3-5-1v-1L63.7-45z"/>
			<path d="M62-41.5c-0.6-0.5-1.3-0.2-2.2,0c1.9-1.2-1.9-3.8,0-5C58.5-44.8,61.3-43.5,62-41.5z"/>
			<path d="M65.2-29.8c1.1,0,2.4-0.2,3,1l-0.7-0.7l2-2l0.7,0.7l-3,3c0.3-0.9-0.5-1.4-1-2H65.2z"/>
			<path d="M26.7-21c-0.6-1.2-1.9-1-3-1c-2,1,0.3,2.8,1,4L24-18.7l1-1l0.7,0.7l-1,1c-1.5-0.1-0.9-4.5-4-3l-1,1c0.5,0.6,1.3,1.1,1,2
				l-1,1l3,2c-0.6-0.5-1.1-1.3-2-1l-1,1c0.3-0.9-0.5-1.4-1-2c0.9,0.3,1.4-0.5,2-1c-0.5-1.4-0.7-2.9-2-4c1.2,1,5.3,2.2,5-1
				C25.1-23.4,25.7-21.7,26.7-21z"/>
			<path d="M17.7-19c-0.5,0.6-1.3,1.1-1,2c-0.6-0.5-1.1-1.3-2-1l0.7,0.7l-1,1L13.7-17l2-2l1,1L17.7-19z"/>
			<path d="M10.7-14c1.9,2.7,3.6-0.9,6,0c-0.5,0.6-1.3,1.1-1,2c-0.6-0.5-1.1-1.3-2-1c-0.5,0.6-1.3,1.1-1,2c1,0-5.7-2.7-1-6
				C11.7-15.9,11.9-14.6,10.7-14z"/>
			<path d="M12-35.4c1,1.7,2.7,1.2,4.3,1.1l0.1,1.4c0.8,0,1.7-0.2,2.2,0.6c-0.7-3.3,3.2-2.5,4.7-3.8c1.8,0-2.5,0.7-2.9-1.2
				c0.9,0.4,0.7,1.3,0.8,2.1l-4.8,2.4l-0.1-1.4L13.5-34l-0.2-2.8L12-35.4z"/>
			<path d="M13.3-55.3l0.8,1.2l2.3-1.6l0.8,1.2l1.2-0.8l-0.2,1c1.6-0.4-4.6,0.5-7.1-0.2C12-54.3,12.7-55,13.3-55.3z"/>
			<path d="M64.6-74.1c3.8,1.3-1.1,4.5,0.8,6.7C63.9-69.6,67.1-72,64.6-74.1z"/>
			<polygon points="68.8,-64.4 67.2,-63.2 70.5,-69.4 			"/>
			<path d="M15-51.4l1,1l-3,3l1,1h-1v-2c0.9,0.3,1.4-0.5,2-1c0.3-0.9-0.5-1.4-1-2c0.6-0.5,1.1-1.3,2-1L15-51.4z"/>
			<path d="M21.3-45.9c0.6,0.5,1.1,1.3,2,1c1.2-0.6,1-1.9,1-3h1l-1,1l0.7-0.7l2,2l-0.7,0.7c-0.6-0.5-1.1-1.3-2-1l-2,2l1,1l-1,1
				c1.5-2.6-3-4,0-6C21.8-47.3,21-46.8,21.3-45.9z"/>
			<polygon points="12.3,-43.9 14.3,-44.9 16.3,-42.9 			"/>
			<path d="M20.3-43.9c-1,1.3-3.1,2.2-3,4v1h-2v-1c1.4,0.4,2-1.3,3-2v-3C18.9-44.4,19.4-43.6,20.3-43.9z"/>
			<path d="M73.8-71.3l1,0.2l0.1,1.7l-1-0.2c-0.2-2-0.1-1.3,1.2-2.2c-0.5-0.6,0.7-2.3-0.2-2.2l0.7-0.8L73.8-71.3z"/>
			<path d="M56.5-8.9c-1.1,0.5,4.1-2.5,3-5C60.6-11.4,57.5-10.6,56.5-8.9z"/>
			<path d="M68.3-25.9l0-1.4c2.3,0.6,4-0.7,4.2-2.9c1.5-1.5-2.3,1.8,0,2.8c-2.6-0.9-4,1.4-5.6,2.9l0,1.4c4.2-0.5-2.1,1.1,0-1.4l0,1
				l-1.4,0l0-1C66.7-24,67.5-25.1,68.3-25.9z"/>
			<path d="M69.3-12.9l-3,5c-3.3,1.7,6.8-7.2-1-4l-0.7,0.7l-1-1l0.7-0.7c1,2,2.8-0.3,4-1c-2.4-1.2-2.4-3.8,0-5
				C65.3-18,66.8-14.5,69.3-12.9z"/>
			<path d="M61-24.4h1v2h-1c-0.6-1.9,0.9-2.8,2-4c-0.6-0.5-1.1-1.3-2-1l1-1c-1-1-3.3-2.8-1-4C57.7-29,68.6-25.9,61-24.4z"/>
			<path d="M58.8-53.2v1c-0.6-1.2-1.9-1-3-1l-1,1c2.7,0.1,1.4-1.7,1.5-3.2C59-52.4,55.5-54.7,58.8-53.2z"/>
			<path d="M64.5-48.4c0.6-0.5,1.1-1.3,2-1C65.9-48.9,65.4-48.1,64.5-48.4l-3-3l-2,2l1-2C62.3-50.6,63.7-50.5,64.5-48.4z"/>
			<path d="M69.3-75.2l1,1c-1.4-0.4-2,1.3-3,2l2,2c1.3-1,2.2-3.1,4-3c-1.6-0.5-3.7,5.1-6,2c0.7-1.8,2.1-4.2,3-5L69.3-75.2z"/>
			<path d="M62.8-75.2c0.2,1.5-1.7,2.3-1,4l1,1l-0.7-0.7l1-1l0.7,0.7c-1.2,0.6-1,1.9-1,3l-2-7H62.8z"/>
			<path d="M66-62.2c-1.2-0.6-1-1.9-1-3c1.4,0.4,2-1.3,3-2l-1-2C70.5-66.5,63.7-65.6,66-62.2z"/>
			<path d="M11.3-32.4l1.4,0.2l-1.4,1.1l-0.7-3.6C11.4-34.1,11.2-33.2,11.3-32.4z"/>
			<path d="M55.4-65.6c2.1,0.1,1-4.8,4.1-7.9l-4.9-0.2l3.4,0.3l0.6-1.4C59.7-72,57.8-69.3,55.4-65.6z"/>
			<path d="M12.8-27.7c-0.5-2.4,2.2-2.4,3.6-2.9v1.4c-2.4-1-4,0-4.3,2l-0.7-0.8L12.8-27.7z"/>
			<path d="M9.4-26.5v1.4l2.9,0.5v1.4l1.4,0.2L13-22.4c1.6,0.8-4.1-2.9-5.7-5.2C7.7-26.6,8.6-26.7,9.4-26.5z"/>
			<path d="M21.8-25.7v-1.4l1.4,0.2v1.4c2.7,1-5.6-2.5-4.3,2c-1.9,1.1,2-0.5,0.7-2L17.5-25C18.9-25.4,20.1-26.1,21.8-25.7z"/>
			<path d="M56.3-48.1c1.7,0.1,3.8,1.3,5,0.2c-0.9,3.2,3.2,1.7,4.3,3.5c-0.4,0.8-1.4,0.4-2.2,0.3c0.1-1.6-2.6-2.9-4.3-3.5L56.3-48.1
				l0.7,3.6l-0.7-5V-48.1z"/>
			<path d="M22.7-57.1c-2.6,0.5-0.9,3.5-1.4,5.3c-0.4-0.9-1.4-0.9-2.2-1.1c-0.9,0.3-0.6,1.2-0.7,2c0.7,1.4,2.4,0.9,3.6,1.3l-3.6,0.1
				c-0.1-0.8,0.1-1.6-0.7-2.2c4.5-0.9,2.5-4.2,5-6.8V-57.1z"/>
			<path d="M10.9-42.3l-1-0.3l0.2-1.4l1,0.3L10.9-42.3l2.8,0.9c0,0.8-0.4,1.6,0.4,2.3l-0.8,0.5C12.3-39.9,13.5-42.4,10.9-42.3
				l-0.8,0.5l-1.8-5.5C9.2-45.4,7.6-42.9,10.9-42.3z"/>
			<path d="M16.7-47.1c0.5-3.5-0.3,2.2,2.2,0.1l-3,0.3L16.7-47.1z"/>
			<path d="M12.1-62.6c0.1-0.8-0.1-1.7,0.7-2C12.8-63.8,13-62.9,12.1-62.6l-4.3-0.7v2.8l-0.7-2.2C9-63.2,10.1-63.9,12.1-62.6z"/>
			<path d="M15.4-63.8c0.7-0.3,1.5-0.9,2.1-0.2l0.4,1.4l1.2-0.6l-0.8,2c-0.1-2.6-1.8-3.6-3.8-2.9l0.4-1L15.4-63.8z"/>
			<path d="M25.2-50.8l1.1-0.8l-0.3,2l-2.7-2.4C24.2-52.3,24.6-51.4,25.2-50.8z"/>
			<path d="M8.4-69.8l1.4,0.2c-1.3,0.5-0.5,2.2-0.7,3.4l2.9,0.5c0.2-1.6-0.6-3.8,0.7-4.8c-1.5,0.5,1,6.3-2.9,5.1
				C9-67.3,8.3-70,8.4-71.2V-69.8z"/>
			<path d="M7.2-74.7l-1-0.2v-1.4l1,0.2V-74.7l2.9,0.5c0.1,0.8-0.1,1.6,0.7,2.2L10-71.4C8.9-72.5,9.7-75.2,7.2-74.7l-0.7,0.6
				l-2.9-6.1C4.8-78.4,3.8-74.8,7.2-74.7z"/>
			<path d="M71-33.2c0.1-0.8-0.1-1.7,0.7-2C71.6-34.4,71.9-33.5,71-33.2l-4.3-0.7v2.8L66-33.4C67.8-33.7,68.9-34.5,71-33.2z"/>
			<path d="M73.6-46.7c-0.9,1.6-0.1,4.6-3.6,2.9v1.4c-0.8-0.1-1.7-0.4-2.2,0.3c0.1,0.8-0.1,1.6,0.7,2.2l-1.4-0.2
				C65-43,73.6-42.1,73.6-46.7z"/>
			<path d="M21.7-83.3c-0.4,1.6,1.5,4.6-2.5,2.9l0.5,1.4c-0.8-0.1-1.9-0.4-2,0.3c0.4,0.8,0.5,1.6,1.5,2.2l-1.5-0.2
				C14.4-79.7,23.4-78.8,21.7-83.3z"/>
			<path d="M72.8-68.4c-2.4,0.5,0.4,3.5,0.5,5.3c-0.8-0.9-1.7-0.9-2.5-1.1c-0.8,0.3-0.2,1.2,0,2c1.2,1.4,2.7,0.9,4.1,1.3l-3.6,0.1
				c-0.4-0.8-0.5-1.6-1.5-2.2c4.1-0.9,1-4.2,2.6-6.8L72.8-68.4z"/>
			<path d="M75-16.8c-3.2-1.7-3.5,1.1-3.1,3.4c1.5,0.6,2-0.3,2.5-0.9c-0.8,0.3-0.2,1.2,0,2l0.5-0.6l1,0.8l-0.5,0.6
				c3.9,0.6-1.5,0.1-2-1.6c-4-1.4-0.1,2.9-1.5,3.7l-0.5-5.3l0.4,1L70.3-14l-0.4-1C74.1-13.6,69.7-19.5,75-16.8z"/>
			<path d="M63.7-42.3c-0.4,1.6,1.5,4.6-2.5,2.9l0.5,1.4c-0.8-0.1-1.9-0.4-2,0.3c0.4,0.8,0.5,1.6,1.5,2.2l-1.5-0.2
				C56.4-38.7,65.4-37.8,63.7-42.3z"/>
			<path d="M59.7-56c1.6,1.1,1.5,2.9,3.6,3.8l1.5,0.2l-1.1-0.2l-0.5-1.4l1.1,0.2c0,1.2,1.4,2.1,2.5,3l-8.1-4.6L59.7-56z"/>
			<path d="M66.7-61.1c-3.6,0.9-0.2,6.1-3.6,6l-1.1-0.2l-0.5-1.4l1.1,0.2l0.5,1.4c3.6,1.2,1-2.5,1.5-3.7l-1.5-0.2L66.7-61.1z"/>
			<path d="M17.8-56.9l-0.2-3.7c-3.2,2.9-4.3,1.2-6.2,1.6l1.6-0.2l-1,1.4c2.3-2.6,5.5,0.5,7.7,1.3l1-1.4
				C19.7-57,18.8-57.1,17.8-56.9z"/>
			<path d="M9.4-59.3l0-0.9l4.4-0.4l0-0.9l2.2-0.2l-1.1-0.4c2.4-0.6-6.2,2-8.8,3.6C6.8-59.1,8.2-59.1,9.4-59.3z"/>
			<path d="M9-51.4l0.3-1.4l1.1,1.5l-3.6,0.5C7.4-51.7,8.2-51.4,9-51.4z"/>
			<polygon points="17.2,-36.1 18.9,-35.6 14.8,-38.1 14.4,-37.6 16.8,-35.7 			"/>
			<path d="M23-30.2c-0.8,0.1-2,0.4-1.9-0.3c0.4-1.2,2.2-2.1,3.6-3l-0.3-0.6l-1,1.4l0.7-1l-3.2,0.5l-0.7,1c0.8-0.1,2-0.4,1.9,0.3
				l-2,2.8l-1.6,0.2l-1,1.4c3-3,6.2-1.6,7.9-4.9C24.7-31.6,24.3-30.8,23-30.2z"/>
			<path d="M84.6-49.3c-3.1,1.8-5.7,0.5-9.3-0.9c-0.3,2,5-0.2,7.9,2L84.6-49.3z"/>
			<path d="M78.9-33.6c3.7,0.6-1.5,0.1-1.4-1.6c-3.4-1.4-1.1,2.9-2.9,3.7l1.4-5.3v1l-1.4-0.2v-1c3.7,1.4,1.4-4.5,5.7-1.8
				c-2.6-1.7-3.9,1.1-4.3,3.4c1.3,0.6,2.1-0.3,2.9-0.9V-33.6z"/>
			<path d="M80.6-21c-0.4-2.6-5.9,0.5-8.6,1.3V-21c0.4,0.9,1.4,0.9,2.2,1.1l2.9-3.7c1.1,2.9,3.4,1.2,5,1.6L80.6-21z"/>
			<path d="M78.5-43.7c-1.7,0.3-2.9-2.4-4.3-0.7v-1.4L78.5-43.7z"/>
			<path d="M79.4-66.2c-0.1-0.8,0.1-1.6-0.7-2.2c-2.5-1.3-1.7,1.7-2.9,2.3c-1.8,1.4,0.9-0.4,0-1.4l-1.4-0.2c1,2.4,4.5-3.1,2.2-5.9
				L79.4-66.2z"/>
			<path d="M77.9-28.7l-0.5-1.4c2.7,1,4,0,3.6-2c1.1-1.2-1.9,1.3,1,2.8c-3.2-1.4-3.9,0.6-5.1,1.8l0.5,1.4c4.4,0.3-1.9,0.7-0.5-1.4
				l0.4,1l-1.5-0.2l-0.4-1C76.9-27.1,77.4-28,77.9-28.7z"/>
			<path d="M76.6-64.7l-1.3,0.8c1.8-0.6,1.9,0.3,2.2,0.9l-1,1.4c-0.9-1.5,0.4,2.8,2.5,1.5C74.2-59.2,79.6-64.1,76.6-64.7z"/>
			<path d="M77.9-56.7l-0.7,1c0.8-0.1,2-0.4,1.9,0.3l-2,2.8l-1.6,0.2l-1,1.4c3-3,6.2-1.6,7.9-4.9c-0.6,0.8-1.1,1.6-2.3,2.2
				c-0.8,0.1-2,0.4-1.9-0.3L77.9-56.7z"/>
			<path d="M62.1-34.5l-1.3,0.8c1.8-0.6,1.9,0.3,2.2,0.9l-1,1.4c-0.9-1.5,0.4,2.8,2.5,1.5C59.8-29,65.1-33.8,62.1-34.5z"/>
			<path d="M62.3-8.4c0.5-0.8,1.4-1.7,0.7-2l-1.6,0.2l1-1.4l-2.6,1.6c3.1-1,4,0,2.8,2L62.3-8.4z"/>
			<path d="M64-36.7c4.1-1.2,0.1,2.5,0.2,3.7c-0.9,1.3,0.9-1.4,2.1-5.9C65.6-38.1,65.2-37.2,64-36.7z"/>
			<path d="M66.9-82.2c-0.7-0.2-1.9,0.7-3,1.2l-1.7,4.7l1.9-1.1l0.6,1.8l3.8-2.2l-1.6,2c-2.6,0.8-2.4-0.6-2.8-1.5l-1.9,1.1
				c-0.3-0.4-0.2-1.2-1.4-0.8c4.5-2.3,2.4-3.9,3.6-5.9L66.9-82.2z"/>
			<path d="M72.3-78.3c-0.5,0.6-1.3,1.1-0.9,1.9l1.2,0.9l-1,1l2.2-0.1c-2.4-1-2.8-2.9-1.6-4.5l-1.1,0.1L72.3-78.3z"/>
			<path d="M66.6-80.7c-0.7,0.6-0.2,1.5-0.1,2.2c1.3-1.7,5.5-2,2.9-5.3c0.9,0.2,1,1.1,1.3,1.8c-2.4,0-2,4.9-5,2.9L66.6-80.7z"/>
			<path d="M69.6-37.2l0.7,0.7L69-35l-0.7-0.7c0.9-1.8,2.6-1.4,4.2-1.5c-0.1-0.8,0.1-1.7-0.8-2.1l1.4,0c0-1.4-0.5-4.3,2-3.6
				C70.4-42.8,76.2-33,69.6-37.2z"/>
			<path d="M63.6-21.7c-1,3.2-6-2.2-6,1.2l0.1,1.1l1.4,1.1l-0.1-1.1l-1.4-1.1c-1.1-4.1,2.5,0,3.7-0.1l0.2,1.6L63.6-21.7z"/>
			<path d="M71.5-25.4c-0.9-0.3-1.4,0.5-2,1c2.1,0.3,4.4,3.9,6,0c0.3,0.9-0.5,1.4-1,2c-1.2-2.1-5.3,0.6-5-3H71.5z"/>
			<path d="M65.4-19.4l-0.3-1.4l1.4-0.3l0.3,1.4c2.7,0.1-5.7-0.5-3.6,3.6c-1.5,1.7,1.8-1.2,0.3-2.2l-2,1.1
				C62.7-18.1,63.7-19.2,65.4-19.4z"/>
			<path d="M80-16.4c-1.4-0.4-2,1.3-3,2c0,2.5,0.2-1-1-1l-1,1l1-2c-0.3,0.9,0.5,1.4,1,2l2-3L80-16.4z"/>
			<polygon points="69.6,-18.6 68.2,-21.3 70.4,-19 70.9,-18.1 70,-17.7 			"/>
			<polygon points="75.5,-29.4 73.6,-28.8 77.6,-32.4 			"/>
			<path d="M3.1-18.2c2.7,0.5,4.4-0.6,6.6-0.9l-3.4,0.7l-1.4-0.9C6.3-20.2,2.9-18.8,3.1-18.2z"/>
			<polygon points="3.5,-29.4 1.6,-28.8 5.6,-32.4 			"/>
			<path d="M9-7.1c-4.1,1.2-0.1-2.5-0.2-3.7l1.6-0.2l-2.8-2C10.8-12.2,5.5-7,9-7.1z"/>
			<path d="M14.5-27.7c1.4,1.1,0.6,3.3,0.9,4.9l-0.1-2.8l-1.4,0.1C13.1-23.7,13.7-27.2,14.5-27.7z"/>
			<path d="M8.3-36.4c0.6-1.1,2.7-2.9,1.7-3.4L8.3-36.4c2.4-1.8-1.6,3.3,4.2-1.9C11-37.4,9.4-36.3,8.3-36.4z"/>
			<polygon points="75,-9.9 73.3,-10.1 77.8,-8.6 78.1,-9.1 75.3,-10.5 			"/>
			<polygon points="75,-81.9 73.3,-82.1 77.8,-80.6 78.1,-81.1 75.3,-82.5 			"/>
			<path d="M55.4-11c0.2-1.1,0.3-2.4,1.6-2.7l-0.8,0.5l-1.6-2.4l0.8-0.5l2.3,3.5c-0.8-0.5-1.5,0.2-2.2,0.6L55.4-11z"/>
			<polygon points="17.9,-12.4 17.2,-10.5 20.4,-10.9 			"/>
			<path d="M73.3-52.7l2-3l1,1C74.9-55.1,74.3-53.4,73.3-52.7z"/>
			<path d="M75.3-77.1c0,2.5,0.2-1-1-1l-1,1l1-2C74-78.2,74.8-77.7,75.3-77.1z"/>
			<path d="M78.1-45.9c-1.3-0.9-4.4-0.3-3.8-3.2c0.3,1.1,0.4,2.4,1.7,2.7c0.9,0.1,1.2-0.8,1.7-1.4l1.7,2.7L78.1-45.9z"/>
			<polygon points="79.6,-42.4 74.7,-40.1 74.2,-40.4 78.5,-40.9 			"/>
			<polygon points="2.7,-40.1 2.2,-40.4 6.5,-40.9 6.5,-41.8 8.7,-42 7.6,-42.4 			"/>
			<polygon points="58.5,-57.2 60.5,-58.7 57.5,-57.8 			"/>
			<polygon points="59.3,-26.7 59.3,-29 58,-28.8 			"/>
			<path d="M51.7-76L51-76.7l1-1l0.7,0.7L51.7-76l2,2c-0.5,0.6-1.3,1.1-1,2h-1C51.5-73.4,54.1-74.9,51.7-76h-1l2-6
				C52.4-80,49-78,51.7-76z"/>
			<path d="M49.7-62.7l-2,0l-0.7,1c0.1-1.8-2-2.7-3-4l-1,1c-0.2-1.4,3.9-2.9,0-4h-1l1-3C43.6-68.3,44.3-63.1,49.7-62.7z"/>
			<path d="M56.3-71.4c-4,0.8-5,5.9-8.4,5.8l-1-0.2l0.3-1.4l1,0.2l0.5,1.1c2.9,1.3,2.4-2.4,3.6-3.6l-1.4-0.3L56.3-71.4z"/>
			<path d="M48.2-58.7l4.5-0.8c-1.2,2.7,2.4,2.6,3.5,3.8l-1-1l-1,1c1.5-2.1-6.9-4.2-9.4-4.2l0.5-1.8C45-60.8,47.7-59.3,48.2-58.7z"
				/>
			<path d="M32.7-58c-2.5-1.1-3.3,2-5,3c0.3-0.9-0.5-1.4-1-2c-0.9-0.3-1.4,0.5-2,1c-0.4,1.4,1.3,2,2,3l-3-2c0.5-0.6,1.3-1.1,1-2
				c4.3,1.9,5.1-1.6,9-2L32.7-58z"/>
			<path d="M46.7-58c-1.9,0.6-3.4,3.2-5,0l-1,1c-0.6-0.5-1.1-1.3-2-1c-0.5,0.6-1.3,1.1-1,2l-1-1C37-60.3,43.4-54.7,46.7-58z"/>
			<path d="M32.7-49c0.3-0.9-0.5-1.4-1-2l-4,2l4,4c0.5-0.6,1.3-1.1,1-2l1,1c-0.9-0.3-1.4,0.5-2,1c0,2.6,2.5,1.6,3,4
				c-3.6-1.3-2.5-7.1-7-8c1.2-1.6,5.3-0.6,4-4L32.7-49z"/>
			<path d="M49.7-46.5c3.8,0.4,0.5-5.6,5-4L49.7-46.5z"/>
			<path d="M37.3-39.8l-0.7,1.2l2.4,1.5l-0.7,1.2l1.2,0.7l-1,0.2c1,1.3-2.3-4-2.6-6.6C35.8-40.6,36.7-40.3,37.3-39.8z"/>
			<path d="M39.7-45c1.3-2,3.5-0.5,5,0l-1,1c-1.2-2.1-3.3-2.3-5-1v-1L39.7-45z"/>
			<path d="M50.6-40.2c-1.2-3-2.1,1.5-5.1,0.1c-1,0.7,1.2-0.7,6.4-1.9C51.4-41.5,50.5-41.2,50.6-40.2z"/>
			<path d="M40.7-37.5l1,1h-2l2-3C42-38.6,41.2-38.1,40.7-37.5z"/>
			<path d="M37.7-33c1.7-1.3-4.2-2.7-5-6l-4,3l3-2l-1-1C34.5-38.5,35.8-36.1,37.7-33z"/>
			<path d="M50.7-35.5c0.3-0.9-0.5-1.4-1-2l1,1l1-2L50.7-35.5z"/>
			<path d="M53.7-33c1-0.7,1.6-2.4,3-2L53.7-33c0.4-1.9-3,1.9-1-3C52.7-34.9,52.5-33.6,53.7-33z"/>
			<path d="M27.7-33c0,1.1,0.2,2.4-1,3l2,2c2.1-1.2,2.3-3.3,1-5l1,3c-1.6,3.2-3.1,0.6-5,0c-1.2,1.7,5.1-2.9,0-3
				c-2.4,2.1,0.8,0.1,0-1C26.3-33.5,26.8-32.7,27.7-33z"/>
			<path d="M46.5-26.2c-1.6-0.7-0.7-3.4-3-3l1-1L46.5-26.2z"/>
			<path d="M49.2-28.2c-2,2.5,1.3-0.3-1-1c1.4,0.4,2-1.3,3-2l-2-1h2L49.2-28.2z"/>
			<path d="M34.9-25.3c1.3,1,2.2,3.1,4,3c-3,1.8,1.4,3,1,5c-0.9,0.3-1.4-0.5-2-1c1.3-1.1,0-3.6-1-5L34.9-25.3l-2,3l3-4L34.9-25.3z"
				/>
			<path d="M40.7-24.2c-4.4,5.1,4.5-2.9-1-1.8l5,0.8L40.7-24.2z"/>
			<path d="M41.7-21.5c3.3,2.7-2.3,5.3,1,8h-2C41-16.2,44.4-18.8,41.7-21.5h-1l6-3L41.7-21.5z"/>
			<path d="M36.2-21c-2.7,2.2-1.2,6.2-5,8c-1.4,1.7,2.8-2.2,3-4C34.2-18.6,33.8-21.3,36.2-21z"/>
			<path d="M54-18.3c-1.6-1.1-2.6,0.9-3.9,1.4c-1.1,3.2-0.4,4.6,2.5,5.5c0.9-0.3,0.9-1.2,1.1-1.9c-0.3-0.9-1.2-0.9-1.9-1.1
				c0.9-0.3,0.9-1.2,1.1-1.9c-0.6,2.1,1.7,3.6,0.3,5.8l-4.5-3c1.4-0.5,0.9-2.2,1.4-3.3l-3,0.8l6.4-3.1L54-18.3z"/>
			<path d="M45.7-33c-0.6-0.5-1.1-1.3-2-1c1.9-1.2-1.9-3.8,0-5C42.4-37.4,45-35,45.7-33z"/>
			<path d="M48.4-56.6c-2.4,3.3,1.5,6.8-1.1,9l-0.8,0.5l-0.7-1.2l0.8-0.5l0.7,1.2c3-1,0.1-3.4,0.2-5.1L46.2-52L48.4-56.6z"/>
			<path d="M35-72.1l-0.5,1.3l2.7,1l-0.5,1.3l1.3,0.5l-0.9,0.4c1.3,1.1-3.1-3.4-3.9-5.9C33.4-72.5,34.3-72.4,35-72.1z"/>
			<polygon points="40.8,-75.4 36.8,-78.4 40.8,-80.4 37.8,-78.4 			"/>
			<path d="M54.4-30.1c-0.6,0.7-0.1,1.5,0.2,2.2c1.1-1.8,5.3-2.6,2.3-5.6c0.9,0.1,1.1,1,1.5,1.7c-2.4,0.3-1.5,5.1-4.7,3.5L54.4-30.1
				z"/>
			<path d="M55-25.9l1-1l1,1l-1,1c1.5,2.3-2.8-5-5-1c-2.3-0.3,2,0.8,2-1l-2-1C52.4-27.4,53.9-27.2,55-25.9z"/>
			<polygon points="51.3,-52.7 50.3,-51.7 51.3,-54.7 52.3,-54.7 52.3,-52.7 			"/>
			<path d="M28-72.7c0.1,1.8-2,2.7-3,4l2-2l-1-1C24.1-71,27.1-72.9,28-72.7z"/>
			<polygon points="29,-63.7 26,-63.7 29,-64.7 30,-64.7 30,-63.7 			"/>
			<path d="M36.3-61.2c0.5-0.6,1.3-1.1,1-2c-1.1-2.4-2.6,0.2-4,0c-2.5,0,1,0.2,1-1l-1-1c-0.9,2.3,5.9,0.4,6-3L36.3-61.2z"/>
			<path d="M45-52.7c-0.9-2.7-4-1.4-6,0c0.6,1.2,1.9,1,3,1c-0.9-0.3-1.4,0.5-2,1h1v1h-1c2.6,2.5-1.3-0.8,0-2c-1.8-3-3,1.4-5,1l5-3
				L39.3-53l-1-1l0.7-0.7C41-51.6,43.4-57.1,45-52.7z"/>
			<path d="M41.4-71.1C41-72,40.1-72,39.3-72.2v1.4C37.8-72,37-74.5,35-74.3c0.9-0.3,0.6-1.2,0.7-2c-0.8,1.6,1.4,2.6,2.2,3.9
				C39.1-72,40.7-72.5,41.4-71.1z"/>
			<path d="M53.3-47.1c2.2,1.2,2.4,2.8,3,4.4l1.5,0.2c0.4,0.8,0.5,1.6,1.5,2.2c-3.8-1.1-1.3,2.9-2,4.3c0.8,1.8-0.3-2.4-2.5-3
				c0.8,0.9,1.7,0.9,2.5,1.1l0.5-4.5l-1.5-0.2l-1-2.8L52.3-46L53.3-47.1z"/>
			<path d="M34.1-14c1.1-0.9,2-0.9,2.9-1.1l-1.6,0.2l2.3-2.2L34.1-14z"/>
			<path d="M29.9-24.8c-0.9,0.3-0.6,1.2-0.7,2"/>
			<path d="M38.8-10.4c0.8-0.1,2-0.4,1.9,0.3c1-2.1,5.6-2,6.6-4.1C45.6-12.1,41.6-11.6,38.8-10.4z"/>
			<path d="M49.3-20.4c-0.8,0.1-2,0.4-1.9-0.3c0.4-1.2,2.2-2.1,3.6-3l-0.3-0.6l-1,1.4l0.7-1l-3.2,0.5l-0.7,1c0.8-0.1,2-0.4,1.9,0.3
				l-2,2.8l-1.6,0.2l-1,1.4c3-3,6.2-1.6,7.9-4.9C50.9-21.9,50.5-21,49.3-20.4z"/>
			<path d="M27.9-84.8c-1.5,1.8-1.2,3.6-3.1,5.5l-1.4,0.8l1-0.6l0.4-1.7l-1,0.6c0.1,1.3-1.2,2.8-2.2,4.2l7.3-8L27.9-84.8z"/>
			<path d="M26.7-36.2L25-36.4l-1.9-2.7l-1.7-0.3l-0.9-1.3l-0.4,0.5C18.4-41.8,25.4-36,29-34C27.7-34.6,27.3-35.4,26.7-36.2z"/>
			<path d="M29.9-24.8c-0.8-0.1-1.7-0.4-2.2,0.3c0.5-2.1-4.1-2-3.6-4.1C24.4-26.5,28-26,29.9-24.8z"/>
			<path d="M32.4-35.1c1.8,1.2,1.4,2.8,1.4,4.4l1.4,0.2c0.1,0.8-0.1,1.6,0.7,2.2c-3.4-1.1-2.4,2.9-3.6,4.3c0.1,1.8,0.6-2.4-1.4-3
				c0.4,0.9,1.4,0.9,2.2,1.1l2.2-4.5l-1.4-0.2v-2.8L31-34L32.4-35.1z"/>
			<path d="M43.4-33c-2.6-1.7-3.9,1.1-4.3,3.4c1.3,0.6,2.1-0.3,2.9-0.9c-0.9,0.3-0.6,1.2-0.7,2l0.7-0.6l0.7,0.8L42-27.7
				c3.7,0.6-1.5,0.1-1.4-1.6c-3.4-1.4-1.1,2.9-2.9,3.7l1.4-5.3v1l-1.4-0.2v-1C41.4-29.8,39.1-35.7,43.4-33z"/>
			<path d="M30.3-20.4l1,1h-2l2-3C31.6-21.5,30.8-21,30.3-20.4z"/>
			<path d="M22.7-12.7l3.3-3.3c0.7,3,3.2,1.6,4.8,2.1l-1.4-0.4L29.2-13c-0.1-2.6-5.9-0.1-8.7,0.3l0.2-1.4C21-13.1,21.9-13,22.7-12.7
				z"/>
			<path d="M30.2-16.4c0.4-3.5-0.2,2.2,2.2-0.3l-3,0.9L30.2-16.4z"/>
			<path d="M25.8-41.9c1.1,0.4,2.5,0.7,2.7,2l2.8-0.9c-0.5-2.2-2.6-3.2-4.8-2.7l3.4,0.3c2.7,2.6-0.5,2.9-1.8,4.2
				c1.3,1.7-1.2-5.4-3.1-1.1c1.3,2.8,0.4-0.6-1-0.4C24.8-40.9,25.8-41.1,25.8-41.9z"/>
			<path d="M21.7-59.2l2.9-3.7c1.1,2.9,3.4,1.2,5,1.6l-1.4-0.2v1.4c-0.4-2.6-5.9,0.5-8.6,1.3v-1.4C19.9-59.4,20.9-59.4,21.7-59.2z"
				/>
			<path d="M32.5-61.3l0.8,1.3l2.2-1.4l0.8,1.3l1.1-0.7l-0.2,1c1.5-0.2-4.3-0.1-6.7-1.2C31.2-60.3,31.8-61,32.5-61.3z"/>
			<polygon points="34.4,-55.5 35,-56.8 35,-53.4 34.1,-53.2 33.5,-55.3 			"/>
			<path d="M53.8-41.8c-0.1-0.8,0.1-1.7-0.7-2l-1.4,0.2v-1.4l-1.4,1.6c2.4-1,4,0,4.3,2l0.7-0.8L53.8-41.8z"/>
			<path d="M44.7-47.6c-0.4-0.9-1.4-0.9-2.2-1.1l1.4,0.2l-0.7-2.2L44.7-47.6z"/>
			<path d="M46.1-42.8v-1.4l1.4,0.2v1.4c2.7,1-5.6-2.5-4.3,2c-1.9,1.1,2-0.5,0.7-2l-2.2,0.3C43.2-42.5,44.4-43.2,46.1-42.8z"/>
			<path d="M52.5-60.9c-1.2-0.6-1-1.9-1-3c1.4,0.4,2-1.3,3-2l-1-2C57-65.2,50.2-64.3,52.5-60.9z"/>
			<path d="M31.3-73.7c-0.7-0.2-1.7-0.1-1.8-1l0.5-1.4l-1.4-0.2l1.8-1.2c-1.4,2.2-0.6,4,1.4,4.6l-0.9,0.6L31.3-73.7z"/>
			<path d="M39-74.2c-0.5,0.6-1.3,1.1-0.9,1.9l1.2,0.9l-1,1l2.2-0.1c-2.4-1-2.8-2.9-1.6-4.5L37.8-75L39-74.2z"/>
			<path d="M59.7-67.1l0.7,0.8c-1.3-0.6-2.1,0.3-2.9,0.9v1.4c2-1.5-2.5,2.8-3.6,1.5C58-61.6,56.2-66.4,59.7-67.1z"/>
			<path d="M49.2-55.8c0.4-0.6,1.1-1,2.1-1.2l0.7,0.8c-1.3-0.6-2.1,0.3-2.9,0.9L49.2-55.8z"/>
			<path d="M32.8-67.2c-0.2-1.1-1.6-2.9-0.5-3.4L32.8-67.2c-1.7-1.8,0.4,3.3-3.6-1.9C30.3-68.2,31.5-67,32.8-67.2z"/>
			<path d="M27.7-66.6c-0.2-0.8-0.8-1.7,0-2C27.9-67.8,28.5-66.9,27.7-66.6l-4.6-0.7l1,2.8l-1.5-2.2C24.3-67.2,25.2-67.9,27.7-66.6z
				"/>
			<path d="M42.3-59.7c2.3-1.9-5-5.3-1.2-7.2L42.3-59.7z"/>
			<path d="M41.9-79c1.1,0.9,2.5,1.9,2.5,3l3.1,0.5c-0.2-2.2-2.2-4-4.6-4.7l3.6,1.9c2.4,3.5-1,2.3-2.5,2.9c1.1,2.1-0.3-5.3-3-2.5
				c0.9,3.1,0.5-0.4-1-0.8C40.7-78.6,41.8-78.2,41.9-79z"/>
			<path d="M53.3-21.3c2.1,4.1,7.7,4.7,8.6,8l0.1,0.9l-1.6-0.6l-0.1-0.9l1.6,0.6c0.5-2.6-3.4-2.8-5.1-4.3l0.1,1.3L53.3-21.3z"/>
			<path d="M47.5-32.4c-0.6,1,2.6-4.7,0.3-6.1C50.1-37.1,47.3-34.4,47.5-32.4z"/>
			<path d="M45.6-70.7c0.8,0.1,1.9,0.4,2-0.3c0-1.2-1.4-2.1-2.5-3l0.5-0.6l0.5,1.4l-0.4-1l3,0.5l0.4,1c-0.8-0.1-1.9-0.4-2,0.3l1,2.8
				l1.5,0.2l0.5,1.4c-1.9-3-5.6-1.6-6.1-4.9C44.4-72.2,44.5-71.3,45.6-70.7z"/>
			<path d="M32.3-77.1l-0.2-3.7c-3.2,2.9-4.2,1.2-6.2,1.6l1.6-0.2l-1,1.4c2.3-2.6,5.5,0.5,7.7,1.3l1-1.4
				C34.2-77.3,33.3-77.3,32.3-77.1z"/>
			<polygon points="25.9,-75.9 26.8,-74.2 27.2,-76.7 26.9,-77.3 25.6,-76.4 			"/>
			<path d="M21.6-4l7.3-8l-1-0.8c-1.5,1.8-1.2,3.6-3.1,5.5L21.6-4z"/>
			<polygon points="50.1,-19 50.8,-21 47.6,-20.5 			"/>
			<polygon points="35,-10.2 35.7,-12.2 32.5,-11.7 			"/>
			<path d="M52.8-22.1c0.8-0.1,2-0.4,1.9,0.3c1-2.1,5.6-2,6.6-4.1C59.6-23.8,55.6-23.3,52.8-22.1z"/>
			<path d="M35.1-47.2l0.1,1.6L39-42l0.1,1.6l0.6-0.2l-1.3-2.8c-0.3,0.6-1.2-0.4-1.9-0.9c-0.8-1.2-0.6-2.1-0.7-3
				C35-48,34.2-49,33.9-48.4L35.1-47.2z"/>
			<polygon points="38.3,-48.4 38.3,-46.9 36.8,-49.8 37.5,-50.5 39,-49.1 			"/>
			<polygon points="29.1,-53 28.4,-51.4 31.4,-55 31,-55.5 28.7,-53.5 			"/>
			<path d="M49.9-81.8l-2,3c0.4,2.1-0.6-3.1-3-4l3,3L49.9-81.8z"/>
			<path d="M36.2-82.4c4.1-1.2,0.1,2.5,0.2,3.7c-0.9,1.3,0.9-1.4,2.1-5.9C37.9-83.8,37.5-83,36.2-82.4z"/>
			<polygon points="45.6,-15.1 44.8,-14.7 43.4,-16.4 43.7,-15.3 			"/>
			<polygon points="48.2,-10.9 48.5,-11.7 47.2,-11.5 			"/>
			<path d="M39.4-62.3c0.6,0.4,0.9,1.2,1,2.2l-0.9,0.6c0.8-1.2-0.1-2.1-0.6-2.9L39.4-62.3z"/>
			<path d="M41.5-73.7c-2.7-2.3,1.7,1.4,1-2l-1,3V-73.7z"/>
			<polygon points="50.3,-61.4 50.8,-61 50.3,-60.4 49.3,-60.4 49.3,-61.4 			"/>
			<polygon points="46.3,-37.2 46.8,-36.8 46.3,-36.2 45.3,-36.2 45.3,-37.2 			"/>
			<polygon points="46.3,-30.7 46.2,-31.3 47,-31.4 47.7,-30.6 47,-30 			"/>
		</g>
		<g>
			<path d="M12.6-49.3c-3.1,1.8-5.7,0.5-9.3-0.9c-0.3,2,5-0.2,7.9,2L12.6-49.3z"/>
			<path d="M6.9-33.6c3.7,0.6-1.5,0.1-1.4-1.6c-3.4-1.4-1.1,2.9-2.9,3.7L4-36.8v1l-1.4-0.2v-1c3.7,1.4,1.4-4.5,5.7-1.8
				c-2.6-1.7-3.9,1.1-4.3,3.4c1.3,0.6,2.1-0.3,2.9-0.9V-33.6z"/>
			<path d="M8.6-21c-0.4-2.6-5.9,0.5-8.6,1.3V-21c0.4,0.9,1.4,0.9,2.2,1.1L5-23.7c1.1,2.9,3.4,1.2,5,1.6L8.6-21z"/>
			<path d="M6.5-43.7c-1.7,0.3-2.9-2.4-4.3-0.7v-1.4L6.5-43.7z"/>
			<path d="M7.4-66.2c-0.1-0.8,0.1-1.6-0.7-2.2c-2.5-1.3-1.7,1.7-2.9,2.3c-1.8,1.4,0.9-0.4,0-1.4l-1.4-0.2c1,2.4,4.5-3.1,2.2-5.9
				L7.4-66.2z"/>
			<path d="M5.9-28.7l-0.5-1.4c2.7,1,4,0,3.6-2c1.1-1.2-1.9,1.3,1,2.8c-3.2-1.4-3.9,0.6-5.1,1.8l0.5,1.4c4.4,0.3-1.9,0.7-0.5-1.4
				l0.4,1l-1.5-0.2l-0.4-1C4.9-27.1,5.4-28,5.9-28.7z"/>
			<path d="M4.6-64.7l-1.3,0.8C5-64.5,5.2-63.6,5.5-63l-1,1.4c-0.9-1.5,0.4,2.8,2.5,1.5C2.2-59.2,7.6-64.1,4.6-64.7z"/>
			<path d="M5.9-56.7l-0.7,1c0.8-0.1,2-0.4,1.9,0.3l-2,2.8l-1.6,0.2l-1,1.4c3-3,6.2-1.6,7.9-4.9c-0.6,0.8-1.1,1.6-2.3,2.2
				c-0.8,0.1-2,0.4-1.9-0.3L5.9-56.7z"/>
			<path d="M8-16.4c-1.4-0.4-2,1.3-3,2c0,2.5,0.2-1-1-1l-1,1l1-2c-0.3,0.9,0.5,1.4,1,2l2-3L8-16.4z"/>
			<polygon points="3.5,-29.4 1.6,-28.8 5.6,-32.4 			"/>
			<polygon points="3,-9.9 1.3,-10.1 5.8,-8.6 6.1,-9.1 3.3,-10.5 			"/>
			<polygon points="3,-81.9 1.3,-82.1 5.8,-80.6 6.1,-81.1 3.3,-82.5 			"/>
			<path d="M6.1-45.9c-1.3-0.9-4.4-0.3-3.8-3.2c0.3,1.1,0.4,2.4,1.7,2.7c0.9,0.1,1.2-0.8,1.7-1.4l1.7,2.7L6.1-45.9z"/>
			<polygon points="7.6,-42.4 2.7,-40.1 2.2,-40.4 6.5,-40.9 			"/>
		</g>
		<g>
			<path d="M56.5-80.9c-1.1,0.5,4.1-2.5,3-5C60.6-83.4,57.5-82.6,56.5-80.9z"/>
			<path d="M69.3-84.9l-3,5c-3.3,1.7,6.8-7.2-1-4l-0.7,0.7l-1-1l0.7-0.7c1,2,2.8-0.3,4-1c-2.4-1.2-2.4-3.8,0-5
				C65.3-90,66.8-86.5,69.3-84.9z"/>
			<path d="M62.3-80.4c0.5-0.8,1.4-1.7,0.7-2l-1.6,0.2l1-1.4l-2.6,1.6c3.1-1,4,0,2.8,2L62.3-80.4z"/>
			<path d="M9-79.1c-4.1,1.2-0.1-2.5-0.2-3.7l1.6-0.2l-2.8-2C10.8-84.2,5.5-79,9-79.1z"/>
			<polygon points="75,-81.9 73.3,-82.1 77.8,-80.6 78.1,-81.1 75.3,-82.5 			"/>
			<path d="M21.6-76l7.3-8l-1-0.8c-1.5,1.8-1.2,3.6-3.1,5.5L21.6-76z"/>
		</g>
		<g>
			<polygon points="3,-81.9 1.3,-82.1 5.8,-80.6 6.1,-81.1 3.3,-82.5 			"/>
		</g>
	</g>
</pattern>
<pattern  y="3000" width="72" height="72" patternUnits="userSpaceOnUse" id="Sticks" viewBox="29.1 -99.7 72 72" style="overflow:visible;">
	<g>
		<rect x="29.1" y="-99.7" class="st0" width="72" height="72"/>
		<g>
			
				<rect x="104.5" y="-37.8" transform="matrix(0.8908 -0.4544 0.4544 0.8908 21.596 45.2816)" class="st1" width="1" height="31.1"/>
		</g>
		<g>
			
				<rect x="86.5" y="-42.2" transform="matrix(0.5705 -0.8213 0.8213 0.5705 59.3226 60.0239)" class="st1" width="1" height="31.1"/>
			
				<rect x="79.8" y="-15.4" transform="matrix(0.4544 -0.8908 0.8908 0.4544 65.3256 76.8441)" class="st1" width="31.1" height="1"/>
			
				<rect x="92.2" y="-30.7" transform="matrix(0.9125 -0.4091 0.4091 0.9125 14.3017 36.5912)" class="st1" width="1" height="31.1"/>
			
				<rect x="31.5" y="-24.7" transform="matrix(0.9264 -0.3766 0.3766 0.9264 12.5784 15.9528)" class="st1" width="31.1" height="1"/>
			
				<rect x="51.8" y="-34.2" transform="matrix(0.8254 -0.5646 0.5646 0.8254 19.6726 26.2831)" class="st1" width="1" height="31.1"/>
			<rect x="70.3" y="-17" transform="matrix(0.5374 -0.8434 0.8434 0.5374 53.625 64.8027)" class="st1" width="31.1" height="1"/>
			<polygon class="st1" points="51.9,-2.5 66.1,-30.2 65.1,-30.7 51,-3 			"/>
			
				<rect x="32.5" y="-37.8" transform="matrix(0.8908 -0.4544 0.4544 0.8908 13.7321 12.5622)" class="st1" width="1" height="31.1"/>
			
				<rect x="65.3" y="-35.4" transform="matrix(0.9794 -0.2019 0.2019 0.9794 5.3725 12.8848)" class="st1" width="1" height="31.1"/>
			
				<rect x="59.4" y="-36.4" transform="matrix(0.4864 -0.8737 0.8737 0.4864 48.9883 41.5937)" class="st1" width="1" height="31.1"/>
			
				<rect x="20.2" y="-20.1" transform="matrix(0.1922 -0.9814 0.9814 0.1922 48.0522 19.3017)" class="st1" width="31.1" height="1"/>
			<rect x="44.5" y="-30.8" transform="matrix(0.9762 -0.2171 0.2171 0.9762 4.3909 9.4032)" class="st1" width="1" height="31.1"/>
		</g>
		<g>
			
				<rect x="7.8" y="-15.4" transform="matrix(0.4544 -0.8908 0.8908 0.4544 26.0413 12.7061)" class="st1" width="31.1" height="1"/>
		</g>
		<g>
			
				<rect x="95.9" y="-83.2" transform="matrix(0.9884 -0.1517 0.1517 0.9884 13.8341 15.9503)" class="st1" width="31.1" height="1"/>
			
				<rect x="104.4" y="-74.4" transform="matrix(0.9292 -0.3695 0.3695 0.9292 29.1863 34.5808)" class="st1" width="1" height="31.1"/>
			<rect x="95.8" y="-51" transform="matrix(0.9863 -0.1648 0.1648 0.9863 9.8383 17.663)" class="st1" width="31.1" height="1"/>
			<rect x="95.3" y="-33" transform="matrix(0.9171 -0.3987 0.3987 0.9171 22.1268 41.5021)" class="st1" width="31.1" height="1"/>
			
				<rect x="109.5" y="-108.6" transform="matrix(0.2736 -0.9618 0.9618 0.2736 169.4441 38.2364)" class="st1" width="1" height="31.1"/>
			
				<rect x="104.5" y="-109.8" transform="matrix(0.8908 -0.4544 0.4544 0.8908 54.3154 37.4177)" class="st1" width="1" height="31.1"/>
			
				<rect x="107.9" y="-53.4" transform="matrix(0.4864 -0.8737 0.8737 0.4864 88.7499 75.2385)" class="st1" width="1" height="31.1"/>
			
				<rect x="102.5" y="-86.3" transform="matrix(0.9717 -0.2364 0.2364 0.9717 19.6529 22.3428)" class="st1" width="1" height="31.1"/>
		</g>
		<g>
			<rect x="23.9" y="-83.2" transform="matrix(0.9884 -0.1517 0.1517 0.9884 13.0007 5.027)" class="st1" width="31.1" height="1"/>
			
				<rect x="73.1" y="-94.5" transform="matrix(0.9884 -0.1517 0.1517 0.9884 15.2814 12.3552)" class="st1" width="31.1" height="1"/>
			
				<rect x="86.5" y="-114.2" transform="matrix(0.5705 -0.8213 0.8213 0.5705 118.4574 29.0979)" class="st1" width="1" height="31.1"/>
			
				<rect x="30.9" y="-58.9" transform="matrix(0.8838 -0.4678 0.4678 0.8838 32.6883 14.9602)" class="st1" width="31.1" height="1"/>
			
				<rect x="75.4" y="-53.8" transform="matrix(0.8852 -0.4652 0.4652 0.8852 35.2136 36.1911)" class="st1" width="31.1" height="1"/>
			
				<rect x="79.8" y="-87.4" transform="matrix(0.4544 -0.8908 0.8908 0.4544 129.4636 37.5598)" class="st1" width="31.1" height="1"/>
			
				<rect x="74.6" y="-79.7" transform="matrix(0.8883 -0.4593 0.4593 0.8883 37.8674 27.3197)" class="st1" width="1" height="31.1"/>
			
				<rect x="94.3" y="-90.6" transform="matrix(0.9125 -0.4092 0.4092 0.9125 39.0094 32.2377)" class="st1" width="1" height="31.1"/>
			<polygon class="st1" points="58.5,-54.8 45.8,-26.4 44.9,-26.8 57.6,-55.2 			"/>
			
				<rect x="92.2" y="-102.7" transform="matrix(0.9125 -0.4091 0.4091 0.9125 43.7569 30.2905)" class="st1" width="1" height="31.1"/>
			<rect x="63.7" y="-49.8" transform="matrix(0.421 -0.9071 0.9071 0.421 90.6504 43.354)" class="st1" width="31.1" height="1"/>
			
				<rect x="29.3" y="-30.9" transform="matrix(0.6585 -0.7526 0.7526 0.6585 38.202 23.3804)" class="st1" width="31.1" height="1"/>
			
				<rect x="59.3" y="-40.7" transform="matrix(0.6525 -0.7578 0.7578 0.6525 56.4936 42.782)" class="st1" width="31.1" height="1"/>
			<rect x="37" y="-67" transform="matrix(0.9919 -0.1268 0.1268 0.9919 6.8235 4.3402)" class="st1" width="1" height="31.1"/>
			
				<rect x="43.5" y="-67.1" transform="matrix(0.3661 -0.9306 0.9306 0.3661 99.4057 12.7287)" class="st1" width="31.1" height="1"/>
			<rect x="29.4" y="-66.3" transform="matrix(0.7366 -0.6763 0.6763 0.7366 56.328 13.095)" class="st1" width="31.1" height="1"/>
			
				<rect x="31.6" y="-45.7" transform="matrix(0.5092 -0.8606 0.8606 0.5092 61.9985 18.3928)" class="st1" width="31.1" height="1"/>
			
				<rect x="32.4" y="-74.4" transform="matrix(0.9292 -0.3695 0.3695 0.9292 24.0909 7.9769)" class="st1" width="1" height="31.1"/>
			<rect x="32" y="-78.2" transform="matrix(0.5434 -0.8394 0.8394 0.5434 86.9454 4.4665)" class="st1" width="31.1" height="1"/>
			<polygon class="st1" points="83.3,-70.9 112.4,-60.1 112.1,-59.1 82.9,-69.9 			"/>
			
				<rect x="31.5" y="-96.7" transform="matrix(0.9264 -0.3766 0.3766 0.9264 39.6932 10.652)" class="st1" width="31.1" height="1"/>
			
				<rect x="82.1" y="-62.1" transform="matrix(0.3991 -0.9169 0.9169 0.3991 92.3786 47.7778)" class="st1" width="1" height="31.1"/>
			
				<rect x="74.3" y="-75.7" transform="matrix(0.9264 -0.3766 0.3766 0.9264 34.9321 28.2975)" class="st1" width="31.1" height="1"/>
			
				<rect x="51.8" y="-106.2" transform="matrix(0.8254 -0.5646 0.5646 0.8254 60.3241 13.7091)" class="st1" width="1" height="31.1"/>
			
				<rect x="71.7" y="-63.5" transform="matrix(0.9727 -0.2322 0.2322 0.9727 17.0087 18.5396)" class="st1" width="31.1" height="1"/>
			<rect x="23.8" y="-51" transform="matrix(0.9863 -0.1648 0.1648 0.9863 8.8534 5.7947)" class="st1" width="31.1" height="1"/>
			<rect x="23.3" y="-33" transform="matrix(0.9171 -0.3987 0.3987 0.9171 16.1565 12.7955)" class="st1" width="31.1" height="1"/>
			
				<rect x="66.7" y="-84.1" transform="matrix(0.8426 -0.5385 0.5385 0.8426 57.9442 31.1652)" class="st1" width="31.1" height="1"/>
			<polygon class="st1" points="58.3,-58.6 87.1,-46.9 86.7,-46 57.9,-57.7 			"/>
			<polygon class="st1" points="78.5,-30.6 99.2,-53.8 100,-53.1 79.3,-29.9 			"/>
			
				<rect x="37.5" y="-108.6" transform="matrix(0.2736 -0.9618 0.9618 0.2736 117.1451 -31.0158)" class="st1" width="1" height="31.1"/>
			
				<rect x="79.3" y="-52.6" transform="matrix(0.2736 -0.9618 0.9618 0.2736 93.6084 49.8178)" class="st1" width="1" height="31.1"/>
			<rect x="60" y="-95.4" transform="matrix(0.2736 -0.9618 0.9618 0.2736 120.7442 0.25)" class="st1" width="1" height="31.1"/>
			
				<rect x="49.6" y="-37.1" transform="matrix(0.8585 -0.5128 0.5128 0.8585 27.9589 28.2438)" class="st1" width="31.1" height="1"/>
			<rect x="61.1" y="-77.7" transform="matrix(0.146 -0.9893 0.9893 0.146 114.1128 7.8287)" class="st1" width="1" height="31.1"/>
			
				<rect x="49.7" y="-37.7" transform="matrix(0.2214 -0.9752 0.9752 0.2214 87.0437 34.6629)" class="st1" width="31.1" height="1"/>
			
				<rect x="68.8" y="-70.7" transform="matrix(0.1138 -0.9935 0.9935 0.1138 144.5476 21.5935)" class="st1" width="31.1" height="1"/>
			
				<rect x="47.8" y="-73.3" transform="matrix(0.5374 -0.8434 0.8434 0.5374 90.6472 19.7241)" class="st1" width="31.1" height="1"/>
			
				<rect x="70.3" y="-89" transform="matrix(0.5374 -0.8434 0.8434 0.5374 114.3464 31.4927)" class="st1" width="31.1" height="1"/>
			<polygon class="st1" points="51.9,-74.5 66.1,-102.2 65.1,-102.7 51,-75 			"/>
			
				<rect x="32.5" y="-109.8" transform="matrix(0.8908 -0.4544 0.4544 0.8908 46.4515 4.6983)" class="st1" width="1" height="31.1"/>
			<rect x="82" y="-38.9" transform="matrix(0.4593 -0.8883 0.8883 0.4593 86.859 65.8522)" class="st1" width="31.1" height="1"/>
			
				<rect x="65.3" y="-107.4" transform="matrix(0.9794 -0.2019 0.2019 0.9794 19.9059 11.4028)" class="st1" width="1" height="31.1"/>
			
				<rect x="71.1" y="-91.2" transform="matrix(0.3766 -0.9264 0.9264 0.3766 114.7255 19.1562)" class="st1" width="1" height="31.1"/>
			<rect x="95.2" y="-57" transform="matrix(0.9935 -0.1138 0.1138 0.9935 5.3433 10.6277)" class="st1" width="1" height="31.1"/>
			
				<rect x="41.8" y="-69.1" transform="matrix(0.6655 -0.7464 0.7464 0.6655 54.1131 13.6843)" class="st1" width="1" height="31.1"/>
			<rect x="63.1" y="-56.3" transform="matrix(0.6656 -0.7463 0.7463 0.6656 51.72 33.8311)" class="st1" width="1" height="31.1"/>
			
				<rect x="35.9" y="-53.4" transform="matrix(0.4864 -0.8737 0.8737 0.4864 51.7726 12.3305)" class="st1" width="1" height="31.1"/>
			
				<rect x="34.2" y="-37.1" transform="matrix(0.8852 -0.4651 0.4651 0.8852 22.7267 18.9509)" class="st1" width="31.1" height="1"/>
			<rect x="88.8" y="-49" transform="matrix(0.4864 -0.8737 0.8737 0.4864 75.1522 60.8741)" class="st1" width="1" height="31.1"/>
			
				<rect x="59.4" y="-108.4" transform="matrix(0.4864 -0.8737 0.8737 0.4864 111.8962 4.6164)" class="st1" width="1" height="31.1"/>
			
				<rect x="20.2" y="-92.1" transform="matrix(0.1922 -0.9814 0.9814 0.1922 118.7103 -38.8625)" class="st1" width="31.1" height="1"/>
			<rect x="76.8" y="-98.6" transform="matrix(0.9762 -0.217 0.217 0.9762 19.8781 14.8051)" class="st1" width="1" height="31.1"/>
			
				<rect x="45.4" y="-71.2" transform="matrix(0.9762 -0.2171 0.2171 0.9762 13.1673 8.6315)" class="st1" width="1" height="31.1"/>
			
				<rect x="44.5" y="-102.8" transform="matrix(0.9762 -0.2171 0.2171 0.9762 20.0191 7.6866)" class="st1" width="1" height="31.1"/>
			
				<rect x="69.5" y="-94.6" transform="matrix(0.9762 -0.2171 0.2171 0.9762 18.8244 13.3097)" class="st1" width="1" height="31.1"/>
			
				<rect x="84.2" y="-71.6" transform="matrix(0.6655 -0.7464 0.7464 0.6655 70.1615 44.4886)" class="st1" width="1" height="31.1"/>
			<rect x="43" y="-103.7" transform="matrix(0.6656 -0.7463 0.7463 0.6656 80.3525 3.0083)" class="st1" width="1" height="31.1"/>
			
				<rect x="30.5" y="-86.3" transform="matrix(0.9717 -0.2364 0.2364 0.9717 17.6122 5.3223)" class="st1" width="1" height="31.1"/>
		</g>
		<g>
			<rect x="1.1" y="-94.5" transform="matrix(0.9884 -0.1517 0.1517 0.9884 14.4479 1.4319)" class="st1" width="31.1" height="1"/>
			<rect x="3.4" y="-53.8" transform="matrix(0.8852 -0.4652 0.4652 0.8852 26.9487 2.6974)" class="st1" width="31.1" height="1"/>
			
				<rect x="7.8" y="-87.4" transform="matrix(0.4544 -0.8908 0.8908 0.4544 90.1793 -26.5782)" class="st1" width="31.1" height="1"/>
			<rect x="22.3" y="-90.6" transform="matrix(0.9125 -0.4092 0.4092 0.9125 32.707 2.7789)" class="st1" width="1" height="31.1"/>
			<polygon class="st1" points="11.3,-70.9 40.4,-60.1 40.1,-59.1 10.9,-69.9 			"/>
			<rect x="2.3" y="-75.7" transform="matrix(0.9264 -0.3766 0.3766 0.9264 29.6313 1.1826)" class="st1" width="31.1" height="1"/>
			<rect x="-0.3" y="-63.5" transform="matrix(0.9727 -0.2322 0.2322 0.9727 15.04 1.8176)" class="st1" width="31.1" height="1"/>
			<rect x="10" y="-38.9" transform="matrix(0.4593 -0.8883 0.8883 0.4593 47.9309 1.8972)" class="st1" width="31.1" height="1"/>
			<rect x="16.8" y="-49" transform="matrix(0.4864 -0.8737 0.8737 0.4864 38.175 -2.0339)" class="st1" width="1" height="31.1"/>
		</g>
		<g>
			
				<rect x="95.3" y="-105" transform="matrix(0.9171 -0.3987 0.3987 0.9171 50.8335 35.5319)" class="st1" width="31.1" height="1"/>
		</g>
		<g>
			<polygon class="st1" points="58.5,-126.8 45.8,-98.4 44.9,-98.8 57.6,-127.2 			"/>
			
				<rect x="29.3" y="-102.9" transform="matrix(0.6585 -0.7526 0.7526 0.6585 92.3865 -1.2061)" class="st1" width="31.1" height="1"/>
			<rect x="23.3" y="-105" transform="matrix(0.9171 -0.3987 0.3987 0.9171 44.8632 6.8252)" class="st1" width="31.1" height="1"/>
			
				<rect x="49.7" y="-109.7" transform="matrix(0.2214 -0.9752 0.9752 0.2214 157.2574 -21.3984)" class="st1" width="31.1" height="1"/>
			
				<rect x="82" y="-110.9" transform="matrix(0.4593 -0.8883 0.8883 0.4593 150.814 26.9242)" class="st1" width="31.1" height="1"/>
			<rect x="95.2" y="-129" transform="matrix(0.9935 -0.1138 0.1138 0.9935 13.539 10.1597)" class="st1" width="1" height="31.1"/>
			
				<rect x="88.8" y="-121" transform="matrix(0.4864 -0.8737 0.8737 0.4864 138.0601 23.8968)" class="st1" width="1" height="31.1"/>
		</g>
		<g>
			
				<rect x="10" y="-110.9" transform="matrix(0.4593 -0.8883 0.8883 0.4593 111.8859 -37.0308)" class="st1" width="31.1" height="1"/>
			
				<rect x="16.8" y="-121" transform="matrix(0.4864 -0.8737 0.8737 0.4864 101.0829 -39.0111)" class="st1" width="1" height="31.1"/>
		</g>
	</g>
</pattern>
<pattern  y="3000" width="60.8" height="72" patternUnits="userSpaceOnUse" id="Undulating_Coarse_Lines" viewBox="2 -72 60.8 72" style="overflow:visible;">
	<g>
		<rect x="2" y="-72" class="st0" width="60.8" height="72"/>
		<g>
			<line class="st3" x1="62.8" y1="-72" x2="62.8" y2="0"/>
		</g>
		<g>
			<line class="st3" x1="2" y1="-72" x2="2" y2="0"/>
			<line class="st4" x1="6.3" y1="-72" x2="6.3" y2="0"/>
			<line class="st5" x1="10.7" y1="-72" x2="10.7" y2="0"/>
			<line class="st6" x1="15" y1="-72" x2="15" y2="0"/>
			<line class="st7" x1="19.4" y1="-72" x2="19.4" y2="0"/>
			<line class="st8" x1="23.7" y1="-72" x2="23.7" y2="0"/>
			<line class="st9" x1="28" y1="-72" x2="28" y2="0"/>
			<line class="st3" x1="62.8" y1="-72" x2="62.8" y2="0"/>
			<line class="st4" x1="58.4" y1="-72" x2="58.4" y2="0"/>
			<line class="st5" x1="54.1" y1="-72" x2="54.1" y2="0"/>
			<line class="st6" x1="49.7" y1="-72" x2="49.7" y2="0"/>
			<line class="st7" x1="45.4" y1="-72" x2="45.4" y2="0"/>
			<line class="st8" x1="41.1" y1="-72" x2="41.1" y2="0"/>
			<line class="st9" x1="36.7" y1="-72" x2="36.7" y2="0"/>
			<line class="st10" x1="32.4" y1="-72" x2="32.4" y2="0"/>
		</g>
		<g>
			<line class="st3" x1="2" y1="-72" x2="2" y2="0"/>
		</g>
	</g>
</pattern>
<rect y="0" class="st11" width="4000" height="3000"/>
<g class="st12">
	<rect y="0" width="4000" height="3000"/>
</g>
<g class="st13">
	<g>
		<line class="st14" x1="200" y1="0" x2="200" y2="3000"/>
		<line class="st14" x1="400" y1="0" x2="400" y2="3000"/>
		<line class="st14" x1="600" y1="0" x2="600" y2="3000"/>
		<line class="st14" x1="800" y1="0" x2="800" y2="3000"/>
		<line class="st14" x1="1000" y1="0" x2="1000" y2="3000"/>
		<line class="st14" x1="1200" y1="0" x2="1200" y2="3000"/>
		<line class="st14" x1="1400" y1="0" x2="1400" y2="3000"/>
		<line class="st14" x1="1600" y1="0" x2="1600" y2="3000"/>
		<line class="st14" x1="1800" y1="0" x2="1800" y2="3000"/>
		<line class="st14" x1="2000" y1="0" x2="2000" y2="3000"/>
		<line class="st14" x1="2200" y1="0" x2="2200" y2="3000"/>
		<line class="st14" x1="2400" y1="0" x2="2400" y2="3000"/>
		<line class="st14" x1="2600" y1="0" x2="2600" y2="3000"/>
		<line class="st14" x1="2800" y1="0" x2="2800" y2="3000"/>
		<line class="st14" x1="3000" y1="0" x2="3000" y2="3000"/>
		<line class="st14" x1="3200" y1="0" x2="3200" y2="3000"/>
		<line class="st14" x1="3400" y1="0" x2="3400" y2="3000"/>
		<line class="st14" x1="3600" y1="0" x2="3600" y2="3000"/>
		<line class="st14" x1="3800" y1="0" x2="3800" y2="3000"/>
	</g>
	<g>
		<line class="st14" x1="0" y1="200" x2="4000" y2="200"/>
		<line class="st14" x1="0" y1="400" x2="4000" y2="400"/>
		<line class="st14" x1="0" y1="600" x2="4000" y2="600"/>
		<line class="st14" x1="0" y1="800" x2="4000" y2="800"/>
		<line class="st14" x1="0" y1="1000" x2="4000" y2="1000"/>
		<line class="st14" x1="0" y1="1200" x2="4000" y2="1200"/>
		<line class="st14" x1="0" y1="1400" x2="4000" y2="1400"/>
		<line class="st14" x1="0" y1="1600" x2="4000" y2="1600"/>
		<line class="st14" x1="0" y1="1800" x2="4000" y2="1800"/>
		<line class="st14" x1="0" y1="2000" x2="4000" y2="2000"/>
		<line class="st14" x1="0" y1="2200" x2="4000" y2="2200"/>
		<line class="st14" x1="0" y1="2400" x2="4000" y2="2400"/>
		<line class="st14" x1="0" y1="2600" x2="4000" y2="2600"/>
		<line class="st14" x1="0" y1="2800" x2="4000" y2="2800"/>
	</g>
</g>
<g class="st15">
	<path class="st16" d="M200,700c400-200,800,200,1200,0s800-300,1400,0s800,300,1100,0"/>
	<path class="st16" d="M100,1100c400-200,900,200,1500,0s900-400,1700,100"/>
	<path class="st16" d="M300,1600c400-150,900,200,1600-100s1100-200,1900,200"/>
	<path class="st16" d="M200,2200c600-200,1200,200,2100-100s900-300,1600,200"/>
</g>
<circle class="st17" cx="1380" cy="1496.1" r="120"/>
<circle class="st18" cx="1380" cy="1496.1" r="180"/>
<circle class="st19" cx="3096.9" cy="1959.3" r="150"/>
<circle class="st20" cx="3096.9" cy="1959.3" r="220"/>
<text transform="matrix(1 0 0 1 1300 859.9999)" class="st21 st22 st23 st24">aether scorched-earth</text>
<text transform="matrix(1 0 0 1 3095.0371 1812.4624)" class="st21 st22 st25 st26">effluent sedimentation</text>
<circle class="st21" cx="850" cy="1400" r="5"/>
<circle class="st21" cx="1600" cy="1100" r="5"/>
<circle class="st21" cx="2100" cy="1900" r="5"/>
<circle class="st21" cx="3439.9" cy="860.5" r="5"/>
<circle class="st21" cx="3136.8" cy="1895.3" r="5"/>
<g>
	<pattern  id="SVGID_1_" xlink:href="#_x31_0_dpi_70_x25_" patternTransform="matrix(0.275 0 0 0.2359 -4467.1372 -7394.4731)">
	</pattern>
	<path class="st27" d="M3002.9,1516.4c-4.6-2.1-9.1-4.1-13.6-5.9c-59.5-24.1-101.8-17-131.1-9.3c-48.3,12.7-64.5,41.4-104.7,34.5
		c-39.8-6.8-64.4-42-90.2-30.4c-1.2,0.5-17.7,8.1-17,16.5c0.3,3.7,7.3,7.6,9.2,7.7c47.2,2.4,50.5,43.5,90.6,44
		c41.8,0.5,65-44.1,106.5-43.5c39,0.6,47.1,40.2,89.6,41.9c49,1.9,97.7-32.1,94.4-41.1c-6-16.9-229.7,30-230,73
		c-0.2,32.5,163.3,60.8,189.6,93.1c18.3,22.5-30.7,37.7-51.3,43.5c-13,3.7-36.8,6.5-37.2,6.5c-3-0.2-14.1,2.9-41.5,2.4
		c-5.2-0.1-14.5,3.5-15.4,4c-16.4,10.4-14.5,9.6-18.3,10.2c-4,0.6-6.4,0.1-7.4-0.1c-2.7-0.7-3.9-1.8-8.6-5.2
		c-9.5-6.8-12.2-7.7-14.8-7.2c-1.1,0.2-1.8,0.6-3.2,1.3c-3.9,2.1-8.1,6.2-7.2,8.3c0.5,1.2,2.2,0.6,5.6,1.7c5.7,1.9,9.9,6.7,11.1,8.2
		c0.6,0.7,2.6,3.1,5.6,5c0.2,0.1,0.5,0.3,1.1,0.6c0,0,3.1,1.7,5.8,2h0c0,0,1.1,0.2,2.2,0.1c17.7-1.4,22.1-19.3,32.9-19.5
		c10.3-0.2,11.9,16.6,25,18.9c13.4,2.4,26.1-12,27.1-14.5c6-14.8-71.8,30.3-66.3,49.5c2.1,13,48.1,41.5,29.8,18.9
		c-8.3-10.3-13.5,0.7-19.3,5.6c-4.2,3.6-7.5,2.1-9.1,0.6c-2.6-2.4-8.1,19.2-8.1-2.4c0-24.1,7,7.9,8.1,10.5c4.3,10.2,7-2.8,8.7-5.2
		c2.3-3.2,4.5,0.2,6.2,8.7c1.7,7.9,3.9,16.5,9.9,21.9c5.9,5.4,12.3,9.4,13.8,10.5c19,15.3-52.1,32.8-112.4,35.5
		c-13.1,0.6-83.1,0.3-90.4,0.3"/>
	
		<pattern  id="SVGID_00000088125040946563173970000002179858417912270249_" xlink:href="#_x31_0_dpi_70_x25_" patternTransform="matrix(0.275 -2.205605e-05 -1.892038e-05 0.2577 -4466.7026 -7188.396)">
	</pattern>
	
		<line style="fill:none;stroke:url(#SVGID_00000088125040946563173970000002179858417912270249_);stroke-miterlimit:10;" x1="2791.4" y1="1760.7" x2="2791.3" y2="1891.9"/>
	
		<pattern  id="SVGID_00000127740583468091473320000017748927915719186836_" xlink:href="#_x31_0_dpi_70_x25_" patternTransform="matrix(0.275 0 0 0.2359 -4467.1372 -7394.4731)">
	</pattern>
	
		<line style="fill:none;stroke:url(#SVGID_00000127740583468091473320000017748927915719186836_);stroke-miterlimit:10;" x1="2907.9" y1="1763.2" x2="2907.9" y2="1858.9"/>
	
		<pattern  id="SVGID_00000080902872083854639680000009933547320369274010_" xlink:href="#_x31_0_dpi_70_x25_" patternTransform="matrix(0.1925 0 0 0.2008 -4969.8164 -7728.8472)">
	</pattern>
	
		<line style="fill:none;stroke:url(#SVGID_00000080902872083854639680000009933547320369274010_);stroke-miterlimit:10;" x1="2834.9" y1="1836.3" x2="2834.9" y2="1899.7"/>
	
		<pattern  id="SVGID_00000146481489989820258830000010944548506752893083_" xlink:href="#_x31_0_dpi_70_x25_" patternTransform="matrix(0.1925 0 0 0.1651 -4969.8164 -8075.1094)">
	</pattern>
	
		<line style="fill:none;stroke:url(#SVGID_00000146481489989820258830000010944548506752893083_);stroke-miterlimit:10;" x1="2875.8" y1="1839.2" x2="2875.8" y2="1871.6"/>
	
		<pattern  id="SVGID_00000098909796055438585350000009647281843640282270_" xlink:href="#_x31_0_dpi_70_x25_" patternTransform="matrix(0.275 0 0 0.2359 -4467.1372 -7394.4731)">
	</pattern>
	<path style="fill:none;stroke:url(#SVGID_00000098909796055438585350000009647281843640282270_);stroke-miterlimit:10;" d="
		M2907.9,1763.2"/>
	
		<pattern  id="SVGID_00000060722996977512514880000013292104674500957599_" xlink:href="#_x31_0_dpi_70_x25_" patternTransform="matrix(0.275 0 0 0.2359 -4467.1372 -7394.4731)">
	</pattern>
	<path style="fill:none;stroke:url(#SVGID_00000060722996977512514880000013292104674500957599_);stroke-miterlimit:10;" d="
		M2982.1,1716.5"/>
	
		<pattern  id="SVGID_00000060002778037014372950000011440729419153109410_" xlink:href="#_x31_0_dpi_70_x25_" patternTransform="matrix(0.275 0 0 0.2359 -4467.1372 -7394.4731)">
	</pattern>
	
		<line style="fill:none;stroke:url(#SVGID_00000060002778037014372950000011440729419153109410_);stroke-miterlimit:10;" x1="2646.3" y1="1521.8" x2="2646.3" y2="1847.9"/>
	
		<pattern  id="SVGID_00000064347275809388970090000006493066654117192102_" xlink:href="#_x31_0_dpi_70_x25_" patternTransform="matrix(0.275 0 0 0.2383 -4467.1372 -7367.4976)">
	</pattern>
	
		<line style="fill:none;stroke:url(#SVGID_00000064347275809388970090000006493066654117192102_);stroke-miterlimit:10;" x1="3036.9" y1="1531.6" x2="3036.9" y2="1799.4"/>
</g>
<g>
	<g>
		
			<pattern  id="SVGID_00000111901768939595042530000006077307035777685142_" xlink:href="#Undulating_Coarse_Lines" patternTransform="matrix(0.5563 0.8309 0.8309 -0.5563 5203.7295 -10086.4336)">
		</pattern>
		
			<pattern  id="SVGID_00000133488455248370059960000001399932379065456554_" xlink:href="#_x31_0_dpi_70_x25_" patternTransform="matrix(0.5563 0.8309 0.8309 -0.5563 5273.8413 -10055.208)">
		</pattern>
		
			<line style="fill:url(#SVGID_00000111901768939595042530000006077307035777685142_);stroke:url(#SVGID_00000133488455248370059960000001399932379065456554_);stroke-width:1.5;stroke-miterlimit:10;" x1="1397.7" y1="1079.5" x2="1830.3" y2="1173"/>
		
			<pattern  id="SVGID_00000022544931532395897180000005166559037846985879_" xlink:href="#Capsules" patternTransform="matrix(0.3099 0.9476 -0.9448 0.2978 -13549.6572 -960.1574)">
		</pattern>
		
			<pattern  id="SVGID_00000096045023227888512290000014947645272239985824_" xlink:href="#_x31_0_dpi_70_x25_" patternTransform="matrix(0.2968 0.9619 -0.968 0.323 -13807.248 -659.7911)">
		</pattern>
		
			<line style="fill:url(#SVGID_00000022544931532395897180000005166559037846985879_);stroke:url(#SVGID_00000096045023227888512290000014947645272239985824_);stroke-width:1.5;stroke-miterlimit:10;" x1="1409.8" y1="948" x2="1639.3" y2="1685.7"/>
		
			<pattern  id="SVGID_00000078763956564196642670000001992604602232598699_" xlink:href="#Capsules" patternTransform="matrix(0.9551 0.2359 -0.1726 0.9347 -2042.0187 707.7203)">
		</pattern>
		
			<pattern  id="SVGID_00000142157322022391752740000017429394728163301814_" xlink:href="#_x31_0_dpi_70_x25_" patternTransform="matrix(0.9774 0.2113 -0.2113 0.9774 -2226.8967 1068.0709)">
		</pattern>
		
			<line style="fill:url(#SVGID_00000078763956564196642670000001992604602232598699_);stroke:url(#SVGID_00000142157322022391752740000017429394728163301814_);stroke-width:1.5;stroke-miterlimit:10;" x1="1694.3" y1="1059.7" x2="1398" y2="1386.5"/>
		
			<pattern  id="SVGID_00000119808804047501891310000011616381642411253433_" xlink:href="#Sticks" patternTransform="matrix(1.067 0.2306 -0.2113 0.9774 -1879.2996 1190.826)">
		</pattern>
		
			<polygon style="fill:none;stroke:url(#SVGID_00000119808804047501891310000011616381642411253433_);stroke-width:2;stroke-miterlimit:10;" points="
			1630.6,1129.8 1559.8,1029.9 1454.1,1091.7 1524.9,1191.5 		"/>
		
			<pattern  id="SVGID_00000160884794690567991170000015619583767851127990_" xlink:href="#Sticks" patternTransform="matrix(0.7408 0.6717 -0.7418 0.8182 -8877.6055 2209.2034)">
		</pattern>
		
			<polygon style="fill:none;stroke:url(#SVGID_00000160884794690567991170000015619583767851127990_);stroke-width:2;stroke-miterlimit:10;" points="
			1630.5,1253.2 1630.5,1130 1508,1142.1 1507.9,1265.3 		"/>
		
			<pattern  id="SVGID_00000085953550861849332120000012471828210073395614_" xlink:href="#Sticks" patternTransform="matrix(1.0064 0.1188 -6.139513e-02 1.076 -764.139 1441.4771)">
		</pattern>
		
			<polygon style="fill:none;stroke:url(#SVGID_00000085953550861849332120000012471828210073395614_);stroke-width:2;stroke-miterlimit:10;" points="
			1453.9,1092.8 1401.7,1203.4 1507.5,1264.9 1559.6,1154.3 		"/>
		
			<pattern  id="SVGID_00000012468973587304433460000009306425998513333677_" xlink:href="#Sticks" patternTransform="matrix(1.0097 8.038429e-02 -0.135 1.0429 -1281.2831 914.1859)">
		</pattern>
		
			<polygon style="fill:none;stroke:url(#SVGID_00000012468973587304433460000009306425998513333677_);stroke-width:0.7;stroke-miterlimit:10;" points="
			1682.1,1291.3 1663,1132.3 1511,1182.8 1530.1,1341.8 		"/>
		
			<pattern  id="SVGID_00000134972700499844835780000010572003626568371328_" xlink:href="#Sticks" patternTransform="matrix(0.9738 0.2247 -0.2196 0.9691 -2265.7698 1100.0576)">
		</pattern>
		
			<polygon style="fill:none;stroke:url(#SVGID_00000134972700499844835780000010572003626568371328_);stroke-width:0.7;stroke-miterlimit:10;" points="
			1741.3,1347.4 1719.8,1142.9 1531.8,1226.3 1553.3,1430.8 		"/>
		
			<pattern  id="SVGID_00000016073534833463749360000002079492817620183231_" xlink:href="#Sticks" patternTransform="matrix(0.982 0.1641 -0.1053 0.8869 -1232.1725 41.0714)">
		</pattern>
		
			<path style="fill:none;stroke:url(#SVGID_00000016073534833463749360000002079492817620183231_);stroke-width:0.7;stroke-miterlimit:10;" d="
			M1824.7,1419.4c44.2-121.6-56.3-269.8-56.3-269.8l-216.4,170.7c0,0-19,242.4,56.3,269.8C1683.7,1617.5,1780.5,1541,1824.7,1419.4z
			"/>
		
			<pattern  id="SVGID_00000008860577616920681070000002154117878016497062_" xlink:href="#Sticks" patternTransform="matrix(0.9225 0.1929 -0.2116 0.9486 -2531.4229 909.7556)">
		</pattern>
		
			<path style="fill:none;stroke:url(#SVGID_00000008860577616920681070000002154117878016497062_);stroke-width:0.7;stroke-miterlimit:10;" d="
			M1577.5,984c59.5,26.4,67.6,138,67.6,138l-147.7,42.2l-67.6-138C1429.8,1026.3,1518,957.6,1577.5,984z"/>
		
			<pattern  id="SVGID_00000052102098223165392250000017843971248463066000_" xlink:href="#Sticks" patternTransform="matrix(0.7391 0.8106 -0.6843 0.7838 -8271.9316 2733.7253)">
		</pattern>
		
			<path style="fill:none;stroke:url(#SVGID_00000052102098223165392250000017843971248463066000_);stroke-width:0.7;stroke-miterlimit:10;" d="
			M1420.9,1077.4l-46.2,93.6c-6.5,13.2-20.3,66.2-8.6,75.3l96.4,75.3l75.4-152.8L1420.9,1077.4z"/>
		
			<pattern  id="SVGID_00000117673832184532453950000018075284416076041354_" xlink:href="#Sticks" patternTransform="matrix(0.6956 0.8617 -0.7187 0.8164 -9005.3945 3416.8774)">
		</pattern>
		
			<path style="fill:none;stroke:url(#SVGID_00000117673832184532453950000018075284416076041354_);stroke-width:0.7;stroke-miterlimit:10;" d="
			M1408.2,1072.6l-56.2,53.7c-62.2,52.6-49.8,151.6-31.6,173.7l79.1,96.4l129.3-176.9L1408.2,1072.6z"/>
		
			<pattern  id="SVGID_00000103982804097779254920000005509298655278561972_" xlink:href="#Sticks" patternTransform="matrix(1.0434 0.3405 -0.3094 1.0078 -2804.8254 2099.7744)">
		</pattern>
		
			<path style="fill:none;stroke:url(#SVGID_00000103982804097779254920000005509298655278561972_);stroke-width:0.7;stroke-miterlimit:10;" d="
			M1598.1,943.9c66.3,37.3,67.8,160.4,67.8,160.4l-172.3,25.5c0,0-96.6-109.1-67.8-160.4C1454.7,918,1531.8,906.6,1598.1,943.9z"/>
		<g class="st49">
			
				<pattern  id="SVGID_00000147934213255494806830000009409528621196026283_" xlink:href="#Mezzotint" patternTransform="matrix(1 0 0 1 -37.8403 73.7308)">
			</pattern>
			<path style="display:inline;fill:url(#SVGID_00000147934213255494806830000009409528621196026283_);" d="M1432.4,1138.1
				c-1.3-1.1-2.7-2.3-4-3.5l-8.1,8.1l5.3,5.3l4.6-10.9L1432.4,1138.1z"/>
			
				<pattern  id="SVGID_00000023971070457668256410000001813309750176477885_" xlink:href="#Mezzotint" patternTransform="matrix(1 0 0 1 -37.8403 73.7308)">
			</pattern>
			<polygon style="display:inline;fill:url(#SVGID_00000023971070457668256410000001813309750176477885_);" points="1570.5,1157.9 
				1585.7,1142.7 1580.8,1137.8 1561.8,1149.2 			"/>
			
				<pattern  id="SVGID_00000026126373194364040910000001660821917150556555_" xlink:href="#Mezzotint" patternTransform="matrix(1 0 0 1 -37.8403 73.7308)">
			</pattern>
			<polygon style="display:inline;fill:url(#SVGID_00000026126373194364040910000001660821917150556555_);" points="1573.3,1160.7 
				1570.5,1157.9 1563.2,1165.2 			"/>
			
				<pattern  id="SVGID_00000160898565454894472060000008367340185769602228_" xlink:href="#Mezzotint" patternTransform="matrix(1 0 0 1 -37.8403 73.7308)">
			</pattern>
			<polygon style="display:inline;fill:url(#SVGID_00000160898565454894472060000008367340185769602228_);" points="1434.1,1156.6 
				1425.7,1148.1 1421.1,1158.9 			"/>
			
				<pattern  id="SVGID_00000007415090523336284920000009079635082543055774_" xlink:href="#Mezzotint" patternTransform="matrix(1 0 0 1 -37.8403 73.7308)">
			</pattern>
			<polygon style="display:inline;fill:url(#SVGID_00000007415090523336284920000009079635082543055774_);" points="1516,1186.1 
				1531,1179.5 1519.4,1174.6 1510.1,1180.3 			"/>
			
				<pattern  id="SVGID_00000156576544535287163150000011932162600018221231_" xlink:href="#Mezzotint" patternTransform="matrix(1 0 0 1 -37.8403 73.7308)">
			</pattern>
			<path style="display:inline;fill:url(#SVGID_00000156576544535287163150000011932162600018221231_);" d="M1444.8,1148.4l-7.6,7.6
				l14.1-2.5C1449.3,1152,1447.1,1150.3,1444.8,1148.4z"/>
			
				<pattern  id="SVGID_00000124877543095121106730000007134092828606524323_" xlink:href="#Mezzotint" patternTransform="matrix(1 0 0 1 -37.8403 73.7308)">
			</pattern>
			<polygon style="display:inline;fill:url(#SVGID_00000124877543095121106730000007134092828606524323_);" points="1516,1268.9 
				1524.5,1301.2 1516.2,1302.6 1527.8,1351.5 1554.7,1339.5 1532.1,1284.9 			"/>
			
				<pattern  id="SVGID_00000173133321062556463540000004071086857983323836_" xlink:href="#Mezzotint" patternTransform="matrix(1 0 0 1 -37.8403 73.7308)">
			</pattern>
			<polygon style="display:inline;fill:url(#SVGID_00000173133321062556463540000004071086857983323836_);" points="1595.8,1183.3 
				1640.3,1150.1 1636.2,1132.8 1573.3,1160.7 			"/>
			
				<pattern  id="SVGID_00000066478128990408451260000003134853666521669771_" xlink:href="#Mezzotint" patternTransform="matrix(1 0 0 1 -37.8403 73.7308)">
			</pattern>
			<polygon style="display:inline;fill:url(#SVGID_00000066478128990408451260000003134853666521669771_);" points="1532.3,1196.1 
				1563.2,1165.2 1531,1179.5 1538,1182.5 			"/>
			
				<pattern  id="SVGID_00000163792879627842772260000014154219536422003865_" xlink:href="#Mezzotint" patternTransform="matrix(1 0 0 1 -37.8403 73.7308)">
			</pattern>
			<polygon style="display:inline;fill:url(#SVGID_00000163792879627842772260000014154219536422003865_);" points="1510.6,1248 
				1544.2,1214.3 1530.4,1200.6 1510.6,1247.9 			"/>
			
				<pattern  id="SVGID_00000098190460856751502680000009925083525274061206_" xlink:href="#Mezzotint" patternTransform="matrix(1 0 0 1 -37.8403 73.7308)">
			</pattern>
			<polygon style="display:inline;fill:url(#SVGID_00000098190460856751502680000009925083525274061206_);" points="1530.4,1200.6 
				1532.3,1196.1 1529.1,1199.3 			"/>
			
				<pattern  id="SVGID_00000111159338383220764260000010652000969675499176_" xlink:href="#Mezzotint" patternTransform="matrix(1 0 0 1 -37.8403 73.7308)">
			</pattern>
			<polygon style="display:inline;fill:url(#SVGID_00000111159338383220764260000010652000969675499176_);" points="1504.3,1224.1 
				1529.1,1199.3 1516,1186.1 1496.7,1194.7 			"/>
			
				<pattern  id="SVGID_00000168814475046968927660000007597185710577613441_" xlink:href="#Mezzotint" patternTransform="matrix(1 0 0 1 -37.8403 73.7308)">
			</pattern>
			<polygon style="display:inline;fill:url(#SVGID_00000168814475046968927660000007597185710577613441_);" points="1691.1,1169.8 
				1672.8,1125.8 1640.3,1150.1 1655.3,1213.2 			"/>
			
				<pattern  id="SVGID_00000039825366393026830300000006144885725790599086_" xlink:href="#Mezzotint" patternTransform="matrix(1 0 0 1 -37.8403 73.7308)">
			</pattern>
			<path style="display:inline;fill:url(#SVGID_00000039825366393026830300000006144885725790599086_);" d="M1554.7,1339.5l1.8,4.4
				c-0.3-1.9-0.5-3.5-0.8-4.9L1554.7,1339.5z"/>
			
				<pattern  id="SVGID_00000159461558438236437470000000340398837148800408_" xlink:href="#Mezzotint" patternTransform="matrix(1 0 0 1 -37.8403 73.7308)">
			</pattern>
			<polygon style="display:inline;fill:url(#SVGID_00000159461558438236437470000000340398837148800408_);" points="1514.9,1243.7 
				1532.1,1284.9 1544.2,1297 1626.9,1214.3 1595.8,1183.3 			"/>
			
				<pattern  id="SVGID_00000046338762823220754720000000875429852411731866_" xlink:href="#Mezzotint" patternTransform="matrix(1 0 0 1 -37.8403 73.7308)">
			</pattern>
			<path style="display:inline;fill:url(#SVGID_00000046338762823220754720000000875429852411731866_);" d="M1730.6,1121.9
				l-39.5,47.9l57.3,137.9l-157.9,117.8l-33.9-81.7c7,44.7,40.7,232.8,110.6,242.3c79.4,10.8,157.9-84.3,175.4-212.6
				C1860.1,1245.5,1730.6,1121.9,1730.6,1121.9z"/>
			
				<pattern  id="SVGID_00000169525842860611161890000004657798743059551886_" xlink:href="#Mezzotint" patternTransform="matrix(1 0 0 1 -37.8403 73.7308)">
			</pattern>
			<path style="display:inline;fill:url(#SVGID_00000169525842860611161890000004657798743059551886_);" d="M1555.8,1339.1l117-51.9
				l-17.5-74l-100.1,121.3C1555.1,1334.5,1555.4,1336.1,1555.8,1339.1z"/>
			
				<pattern  id="SVGID_00000171719719761888327960000012377925880405686198_" xlink:href="#Mezzotint" patternTransform="matrix(1 0 0 1 -37.8403 73.7308)">
			</pattern>
			<path style="display:inline;fill:url(#SVGID_00000171719719761888327960000012377925880405686198_);" d="M1567.3,1124.4
				l13.4,13.4l26.8-16.1c0,0-1-4-3.1-10.6L1567.3,1124.4z"/>
			
				<pattern  id="SVGID_00000078043891045691177970000008769879491280347533_" xlink:href="#Mezzotint" patternTransform="matrix(1 0 0 1 -37.8403 73.7308)">
			</pattern>
			<polygon style="display:inline;fill:url(#SVGID_00000078043891045691177970000008769879491280347533_);" points="1506.6,1169.3 
				1519.4,1174.6 1561.8,1149.2 1544.9,1132.4 1542.7,1133.2 			"/>
			
				<pattern  id="SVGID_00000123427666010272329850000011405920796370323887_" xlink:href="#Mezzotint" patternTransform="matrix(1 0 0 1 -37.8403 73.7308)">
			</pattern>
			<polygon style="display:inline;fill:url(#SVGID_00000123427666010272329850000011405920796370323887_);" points="1486.8,1156.9 
				1488,1161.4 1493.7,1163.8 			"/>
			
				<pattern  id="SVGID_00000016036581337869196240000006578987055087467435_" xlink:href="#Mezzotint" patternTransform="matrix(1 0 0 1 -37.8403 73.7308)">
			</pattern>
			<polygon style="display:inline;fill:url(#SVGID_00000016036581337869196240000006578987055087467435_);" points="1502.8,1173 
				1506.6,1169.3 1493.7,1163.8 			"/>
			
				<pattern  id="SVGID_00000093162497487488406920000011276170607052481709_" xlink:href="#Mezzotint" patternTransform="matrix(1 0 0 1 -37.8403 73.7308)">
			</pattern>
			<polygon style="display:inline;fill:url(#SVGID_00000093162497487488406920000011276170607052481709_);" points="1495.2,1189.2 
				1510.1,1180.3 1502.8,1173 1493.4,1182.4 			"/>
			
				<pattern  id="SVGID_00000071549333231563873800000006781923186929351828_" xlink:href="#Mezzotint" patternTransform="matrix(1 0 0 1 -37.8403 73.7308)">
			</pattern>
			<polygon style="display:inline;fill:url(#SVGID_00000071549333231563873800000006781923186929351828_);" points="1421.1,1158.9 
				1372.3,1167.5 1417.7,1167.1 			"/>
			
				<pattern  id="SVGID_00000152947195235948521160000015755895795033502860_" xlink:href="#Mezzotint" patternTransform="matrix(1 0 0 1 -37.8403 73.7308)">
			</pattern>
			<polygon style="display:inline;fill:url(#SVGID_00000152947195235948521160000015755895795033502860_);" points="1505.9,1259.1 
				1494.9,1285.2 1496.8,1306.1 1516.2,1302.6 			"/>
			
				<pattern  id="SVGID_00000004545349289626644200000013900083007129130657_" xlink:href="#Mezzotint" patternTransform="matrix(1 0 0 1 -37.8403 73.7308)">
			</pattern>
			<polygon style="display:inline;fill:url(#SVGID_00000004545349289626644200000013900083007129130657_);" points="1434.1,1156.6 
				1435.4,1157.8 1437.2,1156 			"/>
			
				<pattern  id="SVGID_00000158721504845809650980000016298878316217070757_" xlink:href="#Mezzotint" patternTransform="matrix(1 0 0 1 -37.8403 73.7308)">
			</pattern>
			<polygon style="display:inline;fill:url(#SVGID_00000158721504845809650980000016298878316217070757_);" points="1505.8,1258.6 
				1504.7,1253.9 1502.8,1255.7 			"/>
			
				<pattern  id="SVGID_00000004530315075495099560000018262284572843601030_" xlink:href="#Mezzotint" patternTransform="matrix(1 0 0 1 -37.8403 73.7308)">
			</pattern>
			<polygon style="display:inline;fill:url(#SVGID_00000004530315075495099560000018262284572843601030_);" points="1493.1,1265.4 
				1502.8,1255.7 1491.1,1244 			"/>
			
				<pattern  id="SVGID_00000079443734316398238780000001338593708263504815_" xlink:href="#Mezzotint" patternTransform="matrix(1 0 0 1 -37.8403 73.7308)">
			</pattern>
			<polygon style="display:inline;fill:url(#SVGID_00000079443734316398238780000001338593708263504815_);" points="1444.4,1166.9 
				1435.4,1157.8 1426.1,1167 			"/>
			
				<pattern  id="SVGID_00000099636494215635160140000018015792740198532271_" xlink:href="#Mezzotint" patternTransform="matrix(1 0 0 1 -37.8403 73.7308)">
			</pattern>
			<polygon style="display:inline;fill:url(#SVGID_00000099636494215635160140000018015792740198532271_);" points="1496.7,1194.7 
				1495.2,1189.2 1486.6,1194.4 1488,1210.5 1496.4,1218.8 1491.2,1197.1 			"/>
			
				<pattern  id="SVGID_00000012451148863483084590000013493808419579858579_" xlink:href="#Mezzotint" patternTransform="matrix(1 0 0 1 -37.8403 73.7308)">
			</pattern>
			<polygon style="display:inline;fill:url(#SVGID_00000012451148863483084590000013493808419579858579_);" points="1510.6,1248 
				1510.5,1248 1506,1258.8 1516,1268.9 			"/>
			
				<pattern  id="SVGID_00000044879445967318896950000011156219603059824286_" xlink:href="#Mezzotint" patternTransform="matrix(1 0 0 1 -37.8403 73.7308)">
			</pattern>
			<polygon style="display:inline;fill:url(#SVGID_00000044879445967318896950000011156219603059824286_);" points="1505.9,1259.1 
				1506,1258.8 1505.8,1258.6 			"/>
			
				<pattern  id="SVGID_00000136373780858751731250000015715699630726100924_" xlink:href="#Mezzotint" patternTransform="matrix(1 0 0 1 -37.8403 73.7308)">
			</pattern>
			<polygon style="display:inline;fill:url(#SVGID_00000136373780858751731250000015715699630726100924_);" points="1504.3,1224.1 
				1503,1225.4 1496.4,1218.8 1504.7,1253.9 1510.5,1248 1510.6,1247.9 			"/>
			
				<pattern  id="SVGID_00000077321577045344628990000014087255906508144010_" xlink:href="#Mezzotint" patternTransform="matrix(1 0 0 1 -37.8403 73.7308)">
			</pattern>
			<polygon style="display:inline;fill:url(#SVGID_00000077321577045344628990000014087255906508144010_);" points="1486.8,1156.9 
				1485.9,1153.5 1484,1154.2 			"/>
			
				<pattern  id="SVGID_00000133509367046332105930000014139345186919375266_" xlink:href="#Mezzotint" patternTransform="matrix(1 0 0 1 -37.8403 73.7308)">
			</pattern>
			<path style="display:inline;fill:url(#SVGID_00000133509367046332105930000014139345186919375266_);" d="M1486.1,1189.7l7.3-7.3
				l-5.5-21l-11.2-4.7l-14.5,5.2c0,0-3.1-2.2-8.2-6.2l7.8,11l22.1-0.2L1486.1,1189.7z"/>
			
				<pattern  id="SVGID_00000079483233464294813650000007845273121326004645_" xlink:href="#Mezzotint" patternTransform="matrix(1 0 0 1 -37.8403 73.7308)">
			</pattern>
			<path style="display:inline;fill:url(#SVGID_00000079483233464294813650000007845273121326004645_);" d="M1412.4,1321
				c-13.5,2.4-36-42-39.5-55.2l-24.6-94l24-4.2l-60.2,0.5l6.8,74.1c2.4,25.7,44.6,123,70.4,122.8l112.7-1l-5.3-58L1412.4,1321z"/>
			
				<pattern  id="SVGID_00000143576007026337684910000016911484598980522641_" xlink:href="#Mezzotint" patternTransform="matrix(1 0 0 1 -37.8403 73.7308)">
			</pattern>
			<polygon style="display:inline;fill:url(#SVGID_00000143576007026337684910000016911484598980522641_);" points="1378.8,1214.3 
				1392.2,1227.7 1411.6,1181.6 			"/>
			
				<pattern  id="SVGID_00000161608770908826539350000006929084970052584320_" xlink:href="#Mezzotint" patternTransform="matrix(1 0 0 1 -37.8403 73.7308)">
			</pattern>
			<polygon style="display:inline;fill:url(#SVGID_00000161608770908826539350000006929084970052584320_);" points="1461.5,1297 
				1475.5,1283 1427.2,1262.7 			"/>
			
				<pattern  id="SVGID_00000106147091875940873990000011948110881531223689_" xlink:href="#Mezzotint" patternTransform="matrix(1 0 0 1 -37.8403 73.7308)">
			</pattern>
			<polygon style="display:inline;fill:url(#SVGID_00000106147091875940873990000011948110881531223689_);" points="1417.7,1167.1 
				1411.6,1181.6 1426.1,1167 			"/>
			
				<pattern  id="SVGID_00000003105240466424270170000011634841415362735036_" xlink:href="#Mezzotint" patternTransform="matrix(1 0 0 1 -37.8403 73.7308)">
			</pattern>
			<polygon style="display:inline;fill:url(#SVGID_00000003105240466424270170000011634841415362735036_);" points="1493.1,1265.4 
				1475.5,1283 1492.8,1290.3 1494.9,1285.2 			"/>
			
				<pattern  id="SVGID_00000114765874240547545020000017051328846289517213_" xlink:href="#Mezzotint" patternTransform="matrix(1 0 0 1 -37.8403 73.7308)">
			</pattern>
			<polygon style="display:inline;fill:url(#SVGID_00000114765874240547545020000017051328846289517213_);" points="1385,1245 
				1427.2,1262.7 1392.2,1227.7 			"/>
			
				<pattern  id="SVGID_00000095301626632084519630000017315058046892558781_" xlink:href="#Mezzotint" patternTransform="matrix(1 0 0 1 -37.8403 73.7308)">
			</pattern>
			<polygon style="display:inline;fill:url(#SVGID_00000095301626632084519630000017315058046892558781_);" points="1461.9,1166.7 
				1444.4,1166.9 1476.7,1199.1 1481.5,1194.3 			"/>
			
				<pattern  id="SVGID_00000023970693039709088440000010163702596947488147_" xlink:href="#Mezzotint" patternTransform="matrix(1 0 0 1 -37.8403 73.7308)">
			</pattern>
			<polygon style="display:inline;fill:url(#SVGID_00000023970693039709088440000010163702596947488147_);" points="1476.7,1199.1 
				1461.5,1214.3 1491.1,1244 1488,1210.5 			"/>
			
				<pattern  id="SVGID_00000055677825349910102270000010926860909503456949_" xlink:href="#Mezzotint" patternTransform="matrix(1 0 0 1 -37.8403 73.7308)">
			</pattern>
			<polygon style="display:inline;fill:url(#SVGID_00000055677825349910102270000010926860909503456949_);" points="1481.5,1194.3 
				1483.1,1196.5 1486.6,1194.4 1486.1,1189.7 			"/>
			
				<pattern  id="SVGID_00000172405454691629477070000017626254127026788013_" xlink:href="#Mezzotint" patternTransform="matrix(1 0 0 1 -37.8403 73.7308)">
			</pattern>
			<path style="display:inline;fill:url(#SVGID_00000172405454691629477070000017626254127026788013_);" d="M1434.6,1128.4
				l-35.8-50.2c0,0,66.8-86.8,124.5-74.8c46.4,9.7,72.7,80.5,81.2,107.7l25.3-9c0,0-29.5-120.7-104.6-143.9
				c-75.2-23.2-150.1,3.6-167.5,59.9c-11.3,36.5,36.1,86.2,70.8,116.6L1434.6,1128.4z"/>
			
				<pattern  id="SVGID_00000040556840829874998080000016615954404382046133_" xlink:href="#Mezzotint" patternTransform="matrix(1 0 0 1 -37.8403 73.7308)">
			</pattern>
			<path style="display:inline;fill:url(#SVGID_00000040556840829874998080000016615954404382046133_);" d="M1445.4,1143.5
				l-12.9-5.4c4.4,3.8,8.6,7.3,12.3,10.3l2.4-2.4L1445.4,1143.5z"/>
			
				<pattern  id="SVGID_00000060003735406721738540000005609440468002546570_" xlink:href="#Mezzotint" patternTransform="matrix(1 0 0 1 -37.8403 73.7308)">
			</pattern>
			<polygon style="display:inline;fill:url(#SVGID_00000060003735406721738540000005609440468002546570_);" points="1461.5,1131.7 
				1478.5,1148.7 1484.4,1147.7 1485.9,1153.5 1542.7,1133.2 1544.2,1131.7 1544.9,1132.4 1567.3,1124.4 1503,1060.1 1434.6,1128.4 
				1445.4,1143.5 1448.4,1144.8 			"/>
			
				<pattern  id="SVGID_00000157294094839035323600000014145300430910072473_" xlink:href="#Mezzotint" patternTransform="matrix(1 0 0 1 -37.8403 73.7308)">
			</pattern>
			<polygon style="display:inline;fill:url(#SVGID_00000157294094839035323600000014145300430910072473_);" points="1448.4,1144.8 
				1447.1,1146 1452.3,1153.3 1463.8,1151.3 			"/>
			
				<pattern  id="SVGID_00000034068300795326445150000000533330669452000899_" xlink:href="#Mezzotint" patternTransform="matrix(1 0 0 1 -37.8403 73.7308)">
			</pattern>
			<path style="display:inline;fill:url(#SVGID_00000034068300795326445150000000533330669452000899_);" d="M1451.2,1153.5
				c1,0.8,2,1.5,2.9,2.2l-1.7-2.4L1451.2,1153.5z"/>
			
				<pattern  id="SVGID_00000088126328904378975820000009705490751845500321_" xlink:href="#Mezzotint" patternTransform="matrix(1 0 0 1 -37.8403 73.7308)">
			</pattern>
			<polygon style="display:inline;fill:url(#SVGID_00000088126328904378975820000009705490751845500321_);" points="1476.8,1156.7 
				1484,1154.2 1478.5,1148.7 1463.8,1151.3 			"/>
		</g>
	</g>
</g>
</svg>
